<svg id="Layer_1" data-name="Layer 1" xmlns="http://www.w3.org/2000/svg" xmlns:xlink="http://www.w3.org/1999/xlink" viewBox="0 0 1398.74 275.38"><defs><style>.cls-1{fill:url(#linear-gradient);}.cls-2{fill:url(#linear-gradient-2);}</style><linearGradient id="linear-gradient" x1="46.74" y1="209.8" x2="424.23" y2="276.36" gradientUnits="userSpaceOnUse"><stop offset="0.41" stop-color="#172252"/><stop offset="0.42" stop-color="#162e58"/><stop offset="0.5" stop-color="#126274"/><stop offset="0.58" stop-color="#0f8f8b"/><stop offset="0.65" stop-color="#0cb39f"/><stop offset="0.73" stop-color="#0ad0ae"/><stop offset="0.81" stop-color="#08e4b8"/><stop offset="0.88" stop-color="#07f0bf"/><stop offset="0.96" stop-color="#07f4c1"/></linearGradient><linearGradient id="linear-gradient-2" x1="443.57" y1="234.07" x2="1441.36" y2="410" gradientUnits="userSpaceOnUse"><stop offset="0.34" stop-color="#172252"/><stop offset="0.36" stop-color="#162e58"/><stop offset="0.44" stop-color="#126274"/><stop offset="0.53" stop-color="#0f8f8b"/><stop offset="0.62" stop-color="#0cb39f"/><stop offset="0.7" stop-color="#0ad0ae"/><stop offset="0.79" stop-color="#08e4b8"/><stop offset="0.87" stop-color="#07f0bf"/><stop offset="0.96" stop-color="#07f4c1"/></linearGradient></defs><path class="cls-1" d="M215.56,98.09l1.7,0,82.24-.86s70.08,5.23,70.08,73.33c0,48.65-50.57,72.62-50.57,72.62L407.63,370.5H355.48s-68.57-98.58-75.68-108-28.64-32.82-28.64-32.82,4,.06,14.68-1.66,35.92-14.16,35.92-14.16,22.17-8.59,22.17-42.29c0-31.55-37.09-35.7-37.09-35.7l-6.22-.35-36.75-.94s-.34-1.28-.75-2.57a134.14,134.14,0,0,0-9.45-16.31c-3.43-4.82-17.11-16.17-17.11-16.17ZM198.69,223.37s30.44-20.52,30.44-64.35c0-47.48-54.7-61.74-77.74-61.74-22.09,0-85.39,3.31-85.39,3.31V370.5l105.39-2.43s75.82-12.61,75.82-79.66C247.21,234.85,198.69,223.37,198.69,223.37ZM112.43,331.2V135.72s69-13.39,69,37.74-54.27,56.17-54.27,56.17l-.39.41.36.33s71.51-.39,71.51,55.44S112.43,331.2,112.43,331.2Z" transform="translate(-66 -97.28)"/><path class="cls-2" d="M442.18,242H488.8c11.34,0,26.28,0,34,4.68a30.49,30.49,0,0,1,15.12,26.81c0,13.68-7.2,23.94-19.07,28.8v.36c15.83,3.24,24.47,15.12,24.47,31,0,18.9-13.5,36.9-39.05,36.9h-62.1Zm17.1,55.25h34.2c19.44,0,27.35-7,27.35-20.52,0-17.81-12.59-20.33-27.35-20.33h-34.2Zm0,58.86h42.84c14.76,0,24.11-9,24.11-23,0-16.74-13.49-21.42-27.89-21.42H459.28Z" transform="translate(-66 -97.28)"/><path class="cls-2" d="M563.86,242h15.3V370.5h-15.3Z" transform="translate(-66 -97.28)"/><path class="cls-2" d="M643.05,275.29c29.52,0,45.18,21.41,45.18,48.77,0,27.18-15.66,48.6-45.18,48.6s-45.17-21.42-45.17-48.6C597.88,296.7,613.53,275.29,643.05,275.29Zm0,83.87c16,0,29-12.6,29-35.1,0-22.68-13-35.28-29-35.28s-29,12.6-29,35.28C614.07,346.56,627,359.16,643.05,359.16Z" transform="translate(-66 -97.28)"/><path class="cls-2" d="M769.41,307.32c-2.34-11.7-10.44-18.54-23-18.54-22.14,0-29,17.46-29,36.36,0,17.1,7.74,34,27.18,34,14.76,0,23.58-8.64,25.56-22.68h15.66c-3.42,22.68-17.64,36.18-41,36.18-28.44,0-43.56-19.8-43.56-47.52,0-27.9,14.4-49.85,43.92-49.85,21.06,0,38,9.89,40.14,32Z" transform="translate(-66 -97.28)"/><path class="cls-2" d="M803.79,242h15.3v76.13l42.48-40.67h20.52l-36.9,33.83,39.6,59.22H865.35l-31.86-48.6-14.4,13.32V370.5h-15.3Z" transform="translate(-66 -97.28)"/><path class="cls-2" d="M898.83,242h60.48c24.12,0,39.06,13.14,39.06,33.65,0,15.48-6.84,28.26-22.32,32.58v.36c14.94,2.88,18,13.86,19.26,26.46,1.08,12.6.36,26.64,7.56,35.46H983.79c-4.86-5.22-2.16-19.08-4.68-31.68-1.8-12.6-4.86-23.22-21.42-23.22H915.93v54.9h-17.1Zm52.74,59.21c16,0,29.7-4.14,29.7-22.86,0-12.59-6.84-21.95-22.86-21.95H915.93V301.2Z" transform="translate(-66 -97.28)"/><path class="cls-2" d="M1099,341c-4.14,20.52-18.9,31.68-39.78,31.68-29.7,0-43.74-20.52-44.64-49,0-27.9,18.36-48.41,43.74-48.41,32.94,0,43,30.77,42.12,53.27h-69.66c-.54,16.2,8.64,30.6,29,30.6,12.6,0,21.42-6.12,24.12-18.18Zm-14.76-25.92c-.72-14.58-11.7-26.28-26.82-26.28-16,0-25.56,12.06-26.64,26.28Z" transform="translate(-66 -97.28)"/><path class="cls-2" d="M1158.21,370.5h-16.38l-34.56-93.05h17.1l26.1,77.57h.36l25.38-77.57h16Z" transform="translate(-66 -97.28)"/><path class="cls-2" d="M1222.47,260.71h-15.3V242h15.3Zm-15.3,16.74h15.3V370.5h-15.3Z" transform="translate(-66 -97.28)"/><path class="cls-2" d="M1325.6,341c-4.14,20.52-18.9,31.68-39.78,31.68-29.7,0-43.74-20.52-44.64-49,0-27.9,18.36-48.41,43.74-48.41,32.94,0,43,30.77,42.12,53.27h-69.66c-.54,16.2,8.64,30.6,29,30.6,12.6,0,21.42-6.12,24.12-18.18Zm-14.76-25.92c-.72-14.58-11.7-26.28-26.82-26.28-16,0-25.56,12.06-26.64,26.28Z" transform="translate(-66 -97.28)"/><path class="cls-2" d="M1435,370.5h-16.2l-18.9-74h-.36l-18.72,74H1364.3l-29.88-93.05h16.92l21.06,76.13h.36l18.72-76.13h16.74l19.44,76.13h.36l20.88-76.13h15.84Z" transform="translate(-66 -97.28)"/></svg>