<svg id="Layer_3" data-name="Layer 3" xmlns="http://www.w3.org/2000/svg" xmlns:xlink="http://www.w3.org/1999/xlink" viewBox="0 0 954.66 746.13"><defs><style>.cls-1{fill:url(#linear-gradient);}</style><linearGradient id="linear-gradient" x1="-24.46" y1="431.54" x2="1027.48" y2="617.03" gradientUnits="userSpaceOnUse"><stop offset="0.32" stop-color="#172252"/><stop offset="0.36" stop-color="#162956"/><stop offset="0.55" stop-color="#144966"/><stop offset="0.64" stop-color="#10797f"/><stop offset="0.75" stop-color="#0cad9b"/><stop offset="0.84" stop-color="#09d4b0"/><stop offset="0.91" stop-color="#08ebbc"/><stop offset="0.96" stop-color="#07f4c1"/></linearGradient></defs><path class="cls-1" d="M386.6,468s82.33-55.51,82.33-174c0-128.43-147.95-167-210.28-167-59.75,0-231,8.93-231,8.93V866l285.08-6.58s205.1-34.11,205.1-215.46C517.85,499,386.6,468,386.6,468ZM153.27,759.66V230.9S340,194.68,340,333s-146.77,152-146.77,152l-1.06,1.12,1,.88s193.43-1.06,193.43,150S153.27,759.66,153.27,759.66ZM442.46,130.45l196.07-3.51s233.2,0,233.2,190.92C871.73,474.23,731.34,524,731.34,524l251,349H831.12L589.8,542s-47.37-50.75-52-51.93,205.15-12.29,205.15-162.81c0-120.64-224.3-98.78-224.3-98.78S498.53,170.27,442.46,130.45Z" transform="translate(-27.67 -126.94)"/></svg>