<svg id="Layer_1" data-name="Layer 1" xmlns="http://www.w3.org/2000/svg" viewBox="0 0 508.3 680.52"><defs><style>.cls-1{fill:#61db69;}.cls-2{fill:#f7f7d5;}.cls-3{fill:#ffce00;}.cls-4{fill:#f4f4f4;}</style></defs><path class="cls-1" d="M483.31,265.09s-29.77-33.21,0-67.56,98.48-37.79,98.48-37.79-12.6,15.46-14.89,31.49,7.77,55.72-33.21,73.86C498.77,280.55,483.31,265.09,483.31,265.09Z" transform="translate(-245.85 -159.74)"/><path class="cls-1" d="M485.16,340.89s-10.25-22.7,11.4-36,58.81-3.51,58.81-3.51-9.31,6.1-13.24,14.25-5.26,31-30.14,33.73C490.79,351.73,485.16,340.89,485.16,340.89Z" transform="translate(-245.85 -159.74)"/><path class="cls-2" d="M752.09,551.4q1,12.21,2.06,24.44c-1.08,1.21-2.17,2.42-3.74,4.19Z" transform="translate(-245.85 -159.74)"/><path class="cls-3" d="M472.75,377.42S456.61,282.71,508.89,221s21.54-19.68,25.47-25.61c3.69-5.57-6.75,10.08-12.11,16.5A89.6,89.6,0,0,0,509.18,229S466,289.85,479.75,377.42Z" transform="translate(-245.85 -159.74)"/><path class="cls-3" d="M478.4,369.63a50,50,0,0,1,22.74-38.33c20.5-13.54,22.19-16.21,22.19-16.21L491.78,334s-19.07,16.47-16,35.39C475.88,370.33,478.4,369.63,478.4,369.63Z" transform="translate(-245.85 -159.74)"/><path class="cls-1" d="M468.14,297.65s11.25-22.23-9.79-36.44-58.6-6.12-58.6-6.12,9,6.52,12.59,14.83,3.89,31.19,28.62,35C462,308.23,468.14,297.65,468.14,297.65Z" transform="translate(-245.85 -159.74)"/><path class="cls-3" d="M470.76,323.51a50,50,0,0,0-21-39.3C429.86,269.78,428.29,267,428.29,267L459,287.3s18.33,17.3,14.47,36.07C473.24,324.33,470.76,323.51,470.76,323.51Z" transform="translate(-245.85 -159.74)"/><circle class="cls-3" cx="231.74" cy="448.78" r="231.74"/><path class="cls-4" d="M550.07,595.53c4.41,1.55,8.77,2.86,12.94,4.61,8.86,3.72,16.29,9.3,21.48,17.57a46.9,46.9,0,0,1,6.78,20.19,81.9,81.9,0,0,1,.51,11.18c-.29,10-1.67,19.92-5.74,29.26-5.78,13.27-15.7,22.29-28.71,28.17a110.59,110.59,0,0,1-29.52,8.21c-5.21.78-10.46,1.28-15.7,1.85-2.66.29-5.34.45-8.17.68v48.17H474.78V717.81H451.47v47.62H422.38V717h-58.8c2-11.79,3.88-23.31,5.78-34.72,5.07,0,10,0,14.85,0a77.59,77.59,0,0,0,8.36-.32c5.42-.64,8.92-4.89,8.93-10.53l0-61.72q0-33.18,0-66.35c0-7.37-4.75-13.17-12-14.34a62,62,0,0,0-8.94-.59c-5.28-.06-10.56.06-15.84.09-.34,0-.67,0-1.08-.06v-31H422.3V449.57h29.18v46.59h23.28V449.6h29.12v47.73c1.87.24,3.62.53,5.39.68a125.94,125.94,0,0,1,23.13,4.16c8.46,2.31,16.49,5.58,23.64,10.76,10.51,7.63,16.41,18,18.25,30.78a59.64,59.64,0,0,1-1,24.27c-3.21,11.86-10.59,20.4-21.12,26.41ZM452.2,682.45c2.42,0,4.69,0,7,0,7.74-.12,15.49-.07,23.22-.46a158,158,0,0,0,16.2-1.81A61.69,61.69,0,0,0,520.19,673c12.73-7.35,17.36-21.79,11.09-34.71C528.22,632,523,628,516.86,625.09c-8-3.74-16.51-5.38-25.2-6.19-5.49-.51-11-.87-16.52-.95-7.47-.11-14.94.12-22.42.2a4.93,4.93,0,0,0-.52.11Zm0-93.51c2.26,0,4.4,0,6.54,0a197.24,197.24,0,0,0,23.19-.72c7.06-.78,14-2,20.65-4.62,5.6-2.25,10.57-5.37,14-10.52a23.5,23.5,0,0,0,3.68-13.56,24.63,24.63,0,0,0-3.6-13.47c-3.43-5.44-8.57-8.67-14.41-10.93-8.81-3.4-18.06-4.38-27.37-4.58-7.46-.17-14.92.14-22.38.24-.07,0-.14.07-.27.13Z" transform="translate(-245.85 -159.74)"/></svg>