<svg id="Layer_1" data-name="Layer 1" xmlns="http://www.w3.org/2000/svg" xmlns:xlink="http://www.w3.org/1999/xlink" viewBox="0 0 810.4 961.72"><defs><style>.cls-1{fill:url(#linear-gradient);}</style><linearGradient id="linear-gradient" x1="180.36" y1="397.64" x2="960.68" y2="681.66" gradientUnits="userSpaceOnUse"><stop offset="0.23" stop-color="#430371"/><stop offset="0.54" stop-color="#006ca8"/></linearGradient></defs><path class="cls-1" d="M517.22,730.47c-7.05,0-14.09.13-21.13,0a289,289,0,0,1-34.53-2.77c-8.93-1.27-17.82-2.94-26.67-4.75-5.48-1.12-10.87-2.74-16.27-4.28-6.34-1.81-12.7-3.58-18.94-5.72a285.67,285.67,0,0,1-33.93-13.8,356,356,0,0,1-34.25-19.21A311,311,0,0,1,283.64,642,300,300,0,0,1,249,602.58a312,312,0,0,1-22.39-35.06A252.13,252.13,0,0,1,210.87,533c-2.24-6.21-4.78-12.33-6.69-18.63-2.37-7.78-4.37-15.67-6.27-23.58-1.38-5.77-2.41-11.64-3.48-17.48a200.19,200.19,0,0,1-3.49-30.16c-.31-10.89-.41-21.8,0-32.69.32-9.56,1.31-19.1,2.24-28.63a114.56,114.56,0,0,1,2.16-12.7c2.06-9.68,3.83-19.45,6.56-28.95,2.88-10,6.62-19.81,10.21-29.62,1.93-5.26,4.14-10.44,6.57-15.49,3.48-7.23,7-14.47,11-21.42a149,149,0,0,0,11.52-24.07c4.76-13.27,11.25-25.59,21-36,8.31-8.85,18.15-15.66,28.7-21.51,6.93-3.84,14-7.44,20.78-11.52,6.6-4,12.89-8.46,19.37-12.64,3.52-2.26,7.08-4.49,10.77-6.45,2.81-1.49,4-3.51,3.76-6.65-.4-5.27-.66-10.54-.93-15.82-.11-2.09-.16-4.18-.12-6.27a11,11,0,0,0-1.22-6.06c-1-1.64-.63-3.34,0-5.09a12.74,12.74,0,0,0,.68-4.11q.12-10.06,0-20.14a10.79,10.79,0,0,0-.63-3.8,4.2,4.2,0,0,1,.06-3.75,14.33,14.33,0,0,0,1.08-4.06c.79-5.22,1.53-10.44,2.25-15.67a77.45,77.45,0,0,1,4.16-15.57c5.51-15.34,14.3-28.08,29.28-35.52a50.71,50.71,0,0,1,34.7-4.26c12.25,2.77,22.59,9,32.08,17a151.42,151.42,0,0,1,23.47,25.47c7.58,10.13,14.75,20.59,21.61,31.23,5.19,8,9.74,16.49,14.28,24.92a7.08,7.08,0,0,0,6.49,4.12c4.94.34,9.89.67,14.78,1.43,6.08,1,12.13,2.16,18.13,3.56,9.65,2.26,19.23,4.79,28.86,7.16,2.24.55,4.53.92,6.8,1.35a4.66,4.66,0,0,0,4.43-1.64c5.5-5.72,11.07-11.37,16.51-17.14,11.18-11.86,22.19-23.89,33.47-35.65q9.6-10,19.84-19.39a113.37,113.37,0,0,1,23.59-16.88c11-5.8,22.78-8.5,35.13-6.58,13.7,2.12,25.16,8.58,33.43,20a95.7,95.7,0,0,1,18.07,44.53c1.35,10.48,3.14,20.9,3.35,31.51.1,5.26.91,10.52.95,15.79s-.44,10.54-.72,15.81c-.09,1.54-.24,3.07-.38,4.6-.4,4.39-.67,8.79-1.25,13.15-.83,6.32-1.63,12.67-2.91,18.92-1.6,7.86-3.43,15.69-5.64,23.4-1.31,4.53-1,8.25,1.91,12.06a242.93,242.93,0,0,1,23.92,39.5,268,268,0,0,1,14.69,34.66c3,9.08,6.13,18.15,8.75,27.35a277.48,277.48,0,0,1,8.87,43.31c.94,8,2.18,15.93,2.79,23.93.55,7.35.61,14.75.55,22.13,0,7.7-.24,15.43-.85,23.1-.67,8.45-1.56,16.9-3,25.25-1.56,9.34-3.56,18.61-5.81,27.81a274.06,274.06,0,0,1-12.4,37.23,319.44,319.44,0,0,1-15.05,31.59c-3.48,6.48-7.42,12.75-11.51,18.87-4.77,7.14-9.7,14.18-15,20.95s-10.85,13-16.38,19.45c-9.15,10.65-19.82,19.68-30.43,28.81a289.71,289.71,0,0,1-30.54,22.52c-7.09,4.64-14.51,8.78-21.93,12.89a235,235,0,0,1-32.29,15c-11,4.09-22.25,7.8-33.54,11.11a297.91,297.91,0,0,1-50.86,9.84c-4.81.54-9.66.67-14.49,1.06-3.17.26-6.33.67-9.49,1Zm-10.71-37.92a232.93,232.93,0,0,0,40.19-2.42c5.65-.86,11.31-1.74,16.91-2.89s11.41-2.49,17-4.12c8.76-2.56,17.53-5.16,26.1-8.26a228.75,228.75,0,0,0,39.09-18.45c8.13-4.83,16.19-9.82,24-15.16,5.72-3.91,11-8.5,16.41-12.79,9.9-7.8,18.72-16.76,27.28-25.93a260.3,260.3,0,0,0,26.14-33.17,270.62,270.62,0,0,0,24.07-45.05,234.77,234.77,0,0,0,11.24-33.12,270.71,270.71,0,0,0,6.76-35.3c1.17-9.86,1.77-19.74,2-29.65a240.5,240.5,0,0,0-2.15-35.58c-.9-7-2.2-13.91-3.42-20.85-.76-4.33-1.64-8.64-2.57-12.94-.9-4.08-1.75-8.19-2.95-12.19-2.23-7.37-4.39-14.79-7.16-22-4.09-10.56-8.25-21.13-13.19-31.3a206.31,206.31,0,0,0-21.09-35.06c-2.52-3.31-5.34-6.46-6.46-10.66-1.37-5.09-3.14-10.08-4.29-15.21-.78-3.51-1.22-7.15,0-10.78,1.35-4.06,2.53-8.19,3.64-12.33A193.82,193.82,0,0,0,730.34,174c.82-9.09,1.89-18.16,1.76-27.32A242.33,242.33,0,0,0,730.38,120c-.81-6.44-1.34-12.93-2.41-19.33a49.66,49.66,0,0,0-9.37-22,34.27,34.27,0,0,0-6.27-5.8,7.47,7.47,0,0,0-3.66-1.27,17.06,17.06,0,0,0-10.25,1.9,52.26,52.26,0,0,0-7.87,4.82c-5.89,4.8-11.75,9.66-17.24,14.9-6.29,6-12.21,12.38-18.23,18.67-4.26,4.45-8.38,9-12.61,13.54-8.61,9.14-17.15,18.34-25.9,27.34a146.23,146.23,0,0,1-12.66,11.6c-4.42,3.59-9.5,6.06-15.47,5.67-3.5-.23-7-.63-10.5-1a52.69,52.69,0,0,1-5.88-.85q-20-4.53-39.91-9.19a100.29,100.29,0,0,0-24.52-2.79c-5.4.07-10.8.23-16.2.14a8.25,8.25,0,0,1-4.62-1.26c-4.64-3.48-8.45-7.74-10.35-13.39-3-8.83-7.5-16.93-12.4-24.75-6.67-10.62-13.77-21-20.94-31.28a149,149,0,0,0-21.16-24,38.31,38.31,0,0,0-12.4-8c-4.37-1.66-8.84-2.06-12.94.93a27,27,0,0,0-9.39,13.3C384,77,383.14,86.66,382.93,96.2c-.23,10.22-.23,20.45.46,30.7,1,14.27.89,28.61,1.1,42.92.06,3.51-.48,7-.74,10.54a5.75,5.75,0,0,1-3.41,4.91c-.89.45-1.77.91-2.66,1.34a267,267,0,0,0-29.92,16.85c-6.76,4.35-13.36,8.95-20.25,13.07-8,4.8-16.39,9-24.41,13.83a52.68,52.68,0,0,0-17.93,17.26c-3.64,5.82-6.19,12.14-8.66,18.52a178.14,178.14,0,0,1-7.17,16.32c-4.79,9.41-10,18.6-14.86,28a173.55,173.55,0,0,0-11.27,28.17c-.8,2.63-1.73,5.22-2.44,7.87-2,7.65-4.33,15.25-5.93,23-1.91,9.26-3.07,18.66-4.21,28.06-1,8.68-1.09,17.37-1.32,26.05a179.23,179.23,0,0,0,.87,21.1c.85,9.09,1.86,18.2,3.42,27.19a247.75,247.75,0,0,0,9.25,35.43,254.53,254.53,0,0,0,19.53,44.36,270.21,270.21,0,0,0,25.41,37.4,275.5,275.5,0,0,0,31.89,33.44,271.29,271.29,0,0,0,30.59,23.57A282.51,282.51,0,0,0,396.77,671,290,290,0,0,0,433,683.34a308.34,308.34,0,0,0,38.88,7.49A222.5,222.5,0,0,0,506.51,692.55ZM658.07,859.8c3.76,1.85,6.85,3.07,9.62,4.8,8,5,11.75,12.58,12.56,21.73a45.89,45.89,0,0,1-1.32,17.36c-2.85,9.54-9,16.26-17.6,20.87A44.19,44.19,0,0,1,641.77,930c-11.78.39-23.57.5-35.35.66-6.06.08-12.12,0-18.18,0-4.38,0-4.76-.38-4.76-4.69q0-35.22,0-70.43,0-26.94,0-53.89c0-.88,0-1.76,0-2.64a2.75,2.75,0,0,1,2.69-2.81,25.79,25.79,0,0,1,2.64-.06c11.68,0,23.36-.11,35,0,9,.11,18.1.53,26.91,2.65,8.5,2,16.23,5.68,21.19,13.48a27.24,27.24,0,0,1,4.28,12c.58,6,.75,12.09-1.33,18-2.5,7.08-6.85,12.48-13.72,15.73C660.3,858.51,659.43,859.05,658.07,859.8ZM608,871.32a25.6,25.6,0,0,0-.36,3q0,16.17,0,32.35c0,2.82.29,3.1,3,3.11,7.71,0,15.41.11,23.11-.07A28.68,28.68,0,0,0,647,906.1a15.12,15.12,0,0,0,5.63-5.4,19.33,19.33,0,0,0,2.61-10.11c.17-8.28-2.71-14-10.68-17.15a33.13,33.13,0,0,0-12.25-2.37c-7.15,0-14.3,0-21.45,0C610,871.07,609.12,871.21,608,871.32Zm-.17-20.92c1.73.12,3,.29,4.32.3q7.43,0,14.85,0A55.61,55.61,0,0,0,640.7,849c6-1.55,9.46-5.29,10.65-11.27a18.22,18.22,0,0,0,.48-3.59c0-6.27-1.86-11.68-8.71-14.49A40.55,40.55,0,0,0,628.28,817c-5.5-.11-11,0-16.51,0-4,0-4.13.13-4.14,4q0,12.88,0,25.75C607.63,847.81,607.74,848.89,607.83,850.4Zm-239.4,70.76c-4.92-4.56-7.45-9.64-6.73-16.11s5.46-10.28,10.64-14.84a24.42,24.42,0,0,1-2.25-1.21c-8.61-5.94-12.74-14.39-13.39-24.6-.52-8.19.81-16.07,5.57-23,5.35-7.78,13-11.89,22.12-13.72,9.46-1.89,18.86-1.08,28.27.22a35.49,35.49,0,0,0,4.6.36c8.92,0,17.85,0,26.77,0,.88,0,1.76,0,2.64.07a2.21,2.21,0,0,1,2.32,2.3c.07,3.83,0,7.66,0,11.71l-15.51,3.07c.67,1.75,1.25,3.11,1.73,4.51,4.14,12.1,3.05,23.49-5.13,33.64-4.34,5.37-10.25,8.61-16.84,10.51A64,64,0,0,1,390,896c-4.09-.34-8.8,5-7.85,9a4.53,4.53,0,0,0,3.59,3.52,41.25,41.25,0,0,0,7.79,1.14c6.83.16,13.66,0,20.49.07a48.61,48.61,0,0,1,17.78,3.16c7.92,3.1,13.24,8.65,15.21,17,2.51,10.64,1,20.61-6.1,29.24A37.3,37.3,0,0,1,422.22,971a99.21,99.21,0,0,1-49,2,34.35,34.35,0,0,1-15.34-7.33,23.75,23.75,0,0,1-8.57-17.23c-.5-7.13,1.1-13.55,6.05-18.92a29.06,29.06,0,0,1,9.45-6.51C365.87,922.46,366.9,921.92,368.43,921.16Zm25.94,36.25a57.41,57.41,0,0,0,17.72-2A21.31,21.31,0,0,0,423,948.87a11.75,11.75,0,0,0,2.91-9.16,8.21,8.21,0,0,0-6.48-7.79,27.19,27.19,0,0,0-6.14-1.18c-8.35-.26-16.71-.48-25.06-.4a27,27,0,0,0-8,1.59,13.2,13.2,0,0,0-9.39,12.94c.08,5.33,3.28,8.91,9.69,11A38.57,38.57,0,0,0,394.37,957.41Zm20-95.46-.3,0c0-1.43.09-2.87,0-4.29-.5-6.83-4.31-12-10.34-13.93a21.63,21.63,0,0,0-13,0c-4.81,1.46-7.81,4.71-9.44,9.38a26.84,26.84,0,0,0-.93,13.7c1.24,7,5.31,11.43,12.46,12.8a24.08,24.08,0,0,0,10.14-.23,13.18,13.18,0,0,0,10.49-10.26A58.57,58.57,0,0,0,414.35,862Zm-308.59,1.27V802.06c0-.77,0-1.54,0-2.31.08-3,.85-3.82,4-3.86s6.39,0,9.59,0c11.24,0,22.48-.12,33.71.24,11,.35,21.63,2.34,31.55,7.5a54.9,54.9,0,0,1,26.11,28.25c3.93,9.38,5.38,19.23,5.44,29.36.07,11-1.26,21.74-5.34,32-5.91,14.94-16.47,25.24-31.19,31.46-11.17,4.71-22.94,6-34.9,6.18-11.35.13-22.7,0-34,.05a13.66,13.66,0,0,1-2.31-.07,2.71,2.71,0,0,1-2.59-2.88c0-1,0-2,0-3V863.22Zm25,46a19.37,19.37,0,0,0,2.44.31c4.84,0,9.69.1,14.53,0a57.62,57.62,0,0,0,15-2.28c13.4-3.94,21.93-12.64,25.36-26.11a73.38,73.38,0,0,0-.08-36.91c-3.8-14.75-13.85-23.33-28.77-26-8.85-1.58-17.79-.78-26.69-.89a8,8,0,0,0-1.75.4Zm740,19.59q3.64-10.44,7.3-20.88,9.48-27,19-53.88,9.35-26.64,18.62-53.31c1.16-3.33.43-4.48-3.11-4.52-5.51,0-11,0-16.53,0-4,0-4,0-5.3,3.8-6,18-12,35.92-18.05,53.85C867.84,868,862.64,882,859,896.58a14.62,14.62,0,0,1-1,2.19h-.71c-.35-1.1-.73-2.19-1-3.3-.41-1.48-.69-3-1.16-4.47-2.89-9-5.78-18-8.76-27q-6.81-20.54-13.74-41-4.05-12.06-8.15-24.09c-.92-2.67-1-2.69-3.74-2.71-5.51,0-11,0-16.53,0a18.65,18.65,0,0,0-2,0c-2.14.24-2.9,1.29-2.46,3.37a13,13,0,0,0,.52,1.56q8.31,23.85,16.62,47.71c4.29,12.26,8.64,24.5,12.92,36.76q7.52,21.51,14.93,43a2.64,2.64,0,0,0,2.92,2.05c3-.06,6,0,8.92,0H870C870.34,929.78,870.56,929.28,870.74,928.77ZM784,802a90.82,90.82,0,0,0-25.43-6.75c-10.16-1.25-20.18-1-30.08,2C716,801,704.16,811.44,703.29,828.16c-.7,13.33,3.4,24.46,14.15,32.81,5.35,4.16,11.35,7.16,17.46,9.95,5.71,2.59,11.55,4.91,17.14,7.74a39.59,39.59,0,0,1,8.29,5.9c6.2,5.56,6.16,18.23-2.74,23.39a24.72,24.72,0,0,1-8,3,59.75,59.75,0,0,1-21-.37,115,115,0,0,1-22.73-6.8c-3.09-1.25-4.1-.58-4.12,2.65,0,5.4.08,10.8-.07,16.2a3.32,3.32,0,0,0,2.51,3.69c3.75,1.24,7.49,2.57,11.3,3.61,6.2,1.68,12.59,2.07,19,2.4,10.67.57,21.17-.32,31.15-4.37,7.73-3.14,14.17-8,18.4-15.4,4.39-7.65,5.25-16,4.3-24.6a30.83,30.83,0,0,0-12.19-21.87,68.6,68.6,0,0,0-11.45-7.16c-7.31-3.59-14.83-6.72-22.26-10.06a42.6,42.6,0,0,1-10.56-6.69c-5.94-5.15-6.7-17.32.86-22.75a18.49,18.49,0,0,1,8.16-3.34,49.73,49.73,0,0,1,20.32,1.26c5.09,1.37,10.06,3.17,15.08,4.79,2.2.71,3.2.49,4-1.47,2.3-5.58,4.45-11.23,6.8-17.2C785.7,802.8,784.84,802.34,784,802Zm-262.53,83.7H493c-.88,0-1.76,0-2.64.05a1.56,1.56,0,0,0-1.66,2c1.34,13.8,8.73,24.27,24.23,25.29a68.76,68.76,0,0,0,31.91-5.71,18.11,18.11,0,0,1,1.83-.76c1.81-.57,3.17.18,3.21,2.07.11,5.07,0,10.14,0,15.21a2.46,2.46,0,0,1-1.91,2.39,60.27,60.27,0,0,1-8.33,3.11,141.78,141.78,0,0,1-14.6,2.64,77.12,77.12,0,0,1-18.78.06c-15-1.74-27-8.44-35-21.48a50.47,50.47,0,0,1-6.91-22.21c-.91-10.16-.49-20.28,2.65-30.09,4.82-15.06,14.29-25.75,29.86-30a56,56,0,0,1,24.26-.78A38.21,38.21,0,0,1,545,841a42.28,42.28,0,0,1,8.82,19.68,103.84,103.84,0,0,1,1.29,21.06c-.06,3.16-.74,3.87-3.94,3.88C541.26,885.67,531.34,885.65,521.42,885.65Zm-32-18.59c3.61.8,38.79.7,41.75-.15.08-6.55-1.66-12.51-6.75-17-10.6-9.3-27.9-4.85-33.1,8.42C490.23,861.08,489.1,863.85,489.4,867.06Zm-153.35,12c-.21,10.41-1.44,20.19-6.07,29.25-6.92,13.57-18.1,21.25-33,23.54a60.22,60.22,0,0,1-17.12.23C264.07,930,252.27,922.25,245,908c-5.65-11-6.72-22.89-6-35,.55-9.17,2.73-17.82,7.49-25.74,6.5-10.83,16.07-17.2,28.4-19.65a59.06,59.06,0,0,1,27.51.58c16,4.44,25.8,15.3,30.82,30.81C335.37,865.63,335.87,872.54,336.05,879.07Zm-24.84,1c0-6.69-.42-12.62-2.32-18.33-2.61-7.79-7.71-13-15.94-14.62a30.9,30.9,0,0,0-6.24-.44c-11.13,0-18.46,5.87-21.16,16.66a65.57,65.57,0,0,0,0,32.34c2.43,9.73,9.31,15.88,19.27,16.71,12.28,1,20.86-4.14,24.41-16.38A58.23,58.23,0,0,0,311.21,880Zm37.67-429c4.08-1,5.26-3.09,3.92-7a9.28,9.28,0,0,0-.4-.91,3,3,0,0,1,.77-3.61,5.36,5.36,0,0,1,4.73-1.74,21,21,0,0,0,6.53-.31c10.18-2.52,16.89-9.05,20.75-18.65a21,21,0,0,0,1.16-12A27.29,27.29,0,0,0,376.8,391a55.59,55.59,0,0,0-16.35-9.14c-16.14-6.11-32.57-6-49.07-1.68a43.55,43.55,0,0,0-8.84,3.64c-5.82,3-10.1,7.43-11.52,14.09-1.18,5.56-.84,10.73,3.75,14.89,2.37,2.14,4.58,4.45,6.87,6.68,2.75,2.69,2.71,4.94-.19,7.48-1.76,1.55-2.91,3.36-2.42,5.78a20.89,20.89,0,0,0,1.29,4.43c4.44,9.84,16.14,18.84,27.7,17A99.31,99.31,0,0,0,348.88,451.05ZM476.41,502.5c-7.64.94-15.31,1.76-22.92,2.94-8.92,1.37-17.8,3-26.68,4.62-6.16,1.11-12.3,2.38-18.45,3.55a17.75,17.75,0,0,1-2.62.26,20.25,20.25,0,0,1-10.67-3,143,143,0,0,0-33.42-14c-7.51-2.05-15.13-4-21.63-8.73a14.86,14.86,0,0,0-3.32-1.48c-8.13-3.2-16.41-5-25.15-2.71-4.76,1.27-9.2,3.1-12.38,7.1-2.64,3.32-3.77,6.86-1.84,11a16.94,16.94,0,0,0,8.06,8,101.62,101.62,0,0,0,11.53,4.88,94.7,94.7,0,0,0,27.79,5.37c5.83.27,11.65.76,17.46,1.26,10,.86,19.91,2.26,29.9,2.57a229,229,0,0,0,27.71-.46c7.66-.69,15.36-1,23-2.13a90.06,90.06,0,0,0,23.52-6.42,26.65,26.65,0,0,0,9.28-6.76,9,9,0,0,0,2.72-5.52A7.58,7.58,0,0,0,476.41,502.5Zm39.47-200.83c6.72-.31,12.27,2,17.68,4.87,9,4.82,16,11.93,22.44,19.67.29.33.56.68.83,1,3.58,4.6,3.64,4.64,0,9.38-5.11,6.65-10.56,13-17.14,18.25a46.7,46.7,0,0,1-16.78,8.9,18.55,18.55,0,0,1-6.53.69,115.65,115.65,0,0,1-15.33-2.15,26.93,26.93,0,0,1-8.25-4,62,62,0,0,0-14.34-6.62c-4.19-1.39-5-2.73-4.87-7,.16-4.88,2-9.28,4.26-13.43,5.37-9.89,12.31-18.5,22-24.54C504.86,303.51,510.15,301.05,515.88,301.67ZM502.05,344a87.11,87.11,0,0,1,2.33-19,27.35,27.35,0,0,1,1.84-5.26c1.56-3.36,2.2-3.48,5.09-1.31,1.41,1.05,2.74,2.23,4.22,3.17,2.45,1.57,5.28.86,6.13-1.41a5.27,5.27,0,0,0-2.35-6.81,12.33,12.33,0,0,0-4.63-1.45c-3.06-.26-6.16-.06-9.23-.22a12,12,0,0,0-8.48,3,26.7,26.7,0,0,0-8.34,12.42c-2.06,6-3.17,12.1-2.07,18.47a11.7,11.7,0,0,0,4.7,7.67q3.71,2.76,7.52,5.36c1.93,1.32,3.61.71,4.24-1.57a7.3,7.3,0,0,0,.08-2.6C502.78,350.94,502.41,347.45,502.05,344ZM327.54,301.75a36,36,0,0,1,15-27,11.31,11.31,0,0,1,7.77-2.17c7.24.47,13.85,2.46,19,8,4.75,5.09,6.34,10.91,3.86,17.63s-5.45,13.23-10,18.85a44.23,44.23,0,0,1-5.75,5.86,10.92,10.92,0,0,1-11.75,1.92c-5.79-2.3-10.93-5.6-14.54-10.91C328.59,310.22,327.05,306.33,327.54,301.75Zm5.41-3.24c-.09,8.66,4.33,15,10.49,20.43.88.77,2.05,1.37,2.89.32.45-.57.19-1.8.06-2.7-.08-.49-.63-.89-.85-1.39-1.16-2.72-2.32-5.43-3.41-8.18-2-5.06-1.5-10.38-1.55-15.64,0-3.24.12-6.32,4.34-6.85a.44.44,0,0,0,.29-.13c.45-.82,1.22-1.63,1.25-2.47,0-1.18-1.09-1.47-2.15-1.56-2.53-.2-4.09,1.3-5.41,3.15-.7,1-1.18,2.12-1.91,3.07A19.9,19.9,0,0,0,333,298.51Zm37.33-9.88c-.09-2.05-1.94-4.1-3.64-4s-3.62,2.37-3.59,4.17a4.17,4.17,0,0,0,3.95,3.71A3.67,3.67,0,0,0,370.28,288.63Z" transform="translate(-105.75 -13.39)"/></svg>