<svg id="Layer_1" data-name="Layer 1" xmlns="http://www.w3.org/2000/svg" viewBox="0 0 245.39 70.29"><defs><style>.cls-1{fill:#fcfcfc;}.cls-2{fill:#c7c6c6;}.cls-3{fill:#d8d8d8;}.cls-4{fill:#cfcfcf;}.cls-5{fill:#030202;}.cls-6{fill:#338908;}.cls-7{fill:#338909;}.cls-8{fill:#030303;}.cls-9{fill:#f5e4ba;}.cls-10{fill:#f6d005;}.cls-11{fill:#edc006;}.cls-12{fill:#2b708c;}.cls-13{fill:#daa80f;}.cls-14{fill:#2a8fa9;}.cls-15{fill:#65b0c4;}.cls-16{fill:#52abc2;}.cls-17{fill:#287f9b;}.cls-18{fill:#219744;}.cls-19{fill:#fbfcfb;}</style></defs><path class="cls-1" d="M266.16,48.47c-3.19,8.73-6.3,17.5-9.59,26.2a16.3,16.3,0,0,1-9,9.46l-.59.06-.62.24a16.71,16.71,0,0,1-11-.56c-4.63-1.76-7.14-5.54-9-9.87-.14-.32-.26-.64-.41-1,0-.07-.14-.12-.34-.27-.24.28-.5.54-.71.84-4,5.85-9.65,9-16.43,10.53a38.88,38.88,0,0,1-23.45-2,25,25,0,0,1-4.77-3,1.59,1.59,0,0,0-2.23,0c-4.76,3.8-10.51,4.74-16.29,5-6.94.3-13.89.18-20.84,0a14.51,14.51,0,0,1-7.94-2.26,1.7,1.7,0,0,0-1.34-.28c-4.48,2.41-9.31,2.71-14.24,2.57-2.44-.67-4.87-1.36-7.33-2a1.89,1.89,0,0,0-1.26.14C105,84.43,101,84.87,97.33,83c-2.48-1.27-4.27-.92-6.53-.22A49.18,49.18,0,0,1,85,83.92l-4,0c-3.8-.29-7.47-1-10.63-3.33a1.48,1.48,0,0,0-1.28,0,30.81,30.81,0,0,1-13,3.54c-5.45.09-10.77-.72-15.57-3.37A24.16,24.16,0,0,1,28.22,64.27a34.74,34.74,0,0,1,.9-18.51A23.94,23.94,0,0,1,38.88,33.3a26.58,26.58,0,0,1,12.85-4,26.16,26.16,0,0,1,18,4.63c.59.42,1.24.8,1.78-.1a21.44,21.44,0,0,1,10.46-4A105.64,105.64,0,0,1,94,29.51a21.47,21.47,0,0,1,5.4,1c1.32.37,1.64-.05,1.77-1.27a15.21,15.21,0,0,1,2.69-7.8c2.55-3.36,8.14-5.68,12.48-4.74a13.24,13.24,0,0,1,9,6.31,16.66,16.66,0,0,1,1.18,3,4.36,4.36,0,0,0,.73,1.53c.19-.65.42-1.29.58-1.95,1.18-4.86,4.15-8,9.05-9.08a30.63,30.63,0,0,1,6-.77c4.5-.11,9-.07,13.49,0,2.89,0,5.78.2,8.67.31.71.19,1.42.46,2.15.58A19,19,0,0,1,177,21.31a1.6,1.6,0,0,0,2.43,0c5.47-4.68,12.1-5.95,19-6.41,5.38-.36,10.45,1,15.47,2.75.7.75,1.35.52,2.09,0,4.65-3.3,9.65-3.48,14.67-1.17,3.28,1.51,5.1,4.49,6.3,7.78,1.46,4,2.8,8,4.2,12,.16.45.34.9.65,1.76,2.1-5.84,4.06-11.31,6-16.78a24.47,24.47,0,0,1,3.06-3.42,13.54,13.54,0,0,1,17.77.87c3.42,3.28,5,7.65,3.53,12.42-1.67,5.52-3.7,10.92-5.58,16.38-.08.23-.14.47-.22.71h0ZM71,67.94c3,6.16,7.61,8.53,14.32,7.59a23.35,23.35,0,0,0,10.88-5c1,1.27,1.93,2.59,3,3.72,2.07,2.11,4.58,1.92,6.51-.31,1.12-1.29.92-2.71.44-4.1a29.05,29.05,0,0,1-1.37-10.48c.08-3.34.12-6.7-.06-10-.36-6.75-3.29-10.3-9.84-11.17a44.32,44.32,0,0,0-11.62,0C77.61,38.89,72,42.1,72,49.59c0,.46-.4.92-.67,1.48-.24-.27-.29-.3-.3-.35-.07-.23-.13-.47-.19-.72A15.41,15.41,0,0,0,62,39.16,20.19,20.19,0,0,0,51.9,37.69,16.45,16.45,0,0,0,36.46,50.55a24.61,24.61,0,0,0-.19,11.29c1.56,7.14,5.89,11.65,13,13.23a24.72,24.72,0,0,0,6.53.58c5.26-.26,10-1.86,13.46-6.16A16.24,16.24,0,0,1,71,67.94Zm97.53-19.45,1.65-1a11.87,11.87,0,0,0,5-14.86,12.34,12.34,0,0,0-11.56-8.11c-7.18-.34-14.38-.25-21.57-.31-4.65,0-6.49,1.8-6.49,6.4q0,19.41,0,38.82a13,13,0,0,0,.1,1.65c.36,2.92,2,4.62,4.91,4.63,8,0,16,0,24-.34,5.11-.24,9.41-2.46,12.07-7.16,4.18-7.4,1.39-15.75-6.39-19C169.67,49,169.17,48.77,168.48,48.49Zm31.28,28.19c4.69,0,8.07-.61,11.37-2.2,6.36-3.08,9.47-8.13,9.17-15.26C220,52.83,216.39,49,210.76,47c-3.54-1.32-7.26-2.13-10.86-3.31a39.51,39.51,0,0,1-7.72-3c-2.83-1.67-2.83-5.15-.39-7.4a8.89,8.89,0,0,1,5.43-2.27c6.12-.5,8.65.75,11.34,5.71a13.39,13.39,0,0,0,1.75,2.77,4.34,4.34,0,0,0,2.23,1.3c3.49.67,6.2-2.35,5.48-6.05-.88-4.51-3.87-7.33-7.8-9.25-4.17-2-8.64-2.32-13.18-2a22.34,22.34,0,0,0-10.63,3.19,13.19,13.19,0,0,0-1.22,21.46c2.9,2.26,6.35,3.32,9.8,4.31s7.06,1.81,10.48,3a6.1,6.1,0,0,1,4.52,5.9c0,3.08-1.69,5-4.22,6.36a13.73,13.73,0,0,1-7.28,1.28,9.06,9.06,0,0,1-8.29-5c-.83-1.58-1.48-3.27-2.39-4.81a4.28,4.28,0,0,0-5.41-2,4.53,4.53,0,0,0-3,4.94,14.27,14.27,0,0,0,5.2,9.79C188.88,75.73,194.19,76.66,199.76,76.68Zm42.17-12.22c-.3-.73-.46-1.08-.59-1.45-2.74-8.12-5.44-16.25-8.22-24.36-1.46-4.28-2.92-8.58-4.63-12.77-1-2.37-3.56-3.17-6.07-2.3a4.86,4.86,0,0,0-3.24,5.56,18.41,18.41,0,0,0,.84,3q5.22,14.33,10.49,28.63c1.5,4.06,3,8.13,4.73,12.09,1.26,2.86,3.76,3.95,6.86,3.81a6.76,6.76,0,0,0,6.05-4A24.62,24.62,0,0,0,249.36,70q5.87-15.84,11.7-31.68c1.08-2.95,2.19-5.89,3-8.91a4.66,4.66,0,0,0-3.29-5.86c-2.7-.84-5,.32-6.09,3.09-.43,1.11-.81,2.25-1.2,3.38C249.69,41.37,245.87,52.75,241.93,64.46Zm-132.45-26c-4,.3-5.3,1.11-5.37,3.27-.07,2.31.92,3,5.37,3.66v1.44c0,5.8,0,11.59,0,17.39a31.76,31.76,0,0,0,.4,4.77,7.14,7.14,0,0,0,5.79,6.27,18.23,18.23,0,0,0,8.31.07A13.23,13.23,0,0,0,127.61,74,3.13,3.13,0,0,0,129,69.82c-.54-1.5-1.59-2.1-3.45-1.92-.79.08-1.57.28-2.36.38-3.1.42-4.13-.44-4.31-3.56q0-.45,0-.9,0-8.68,0-17.38c0-.39,0-.77.06-1a44.76,44.76,0,0,0,5.27-.69,3,3,0,0,0,1.73-4.55,3.46,3.46,0,0,0-3.17-1.65c-1.27,0-2.55,0-3.89,0,0-1.31,0-2.41,0-3.51,0-2,0-4.1-.22-6.13A4.39,4.39,0,0,0,114,25a4.45,4.45,0,0,0-4.42,4.06,23.89,23.89,0,0,0-.11,2.39C109.47,33.75,109.48,36,109.48,38.42Z" transform="translate(-27.37 -14.83)"/><path class="cls-2" d="M246.33,84.43l.62-.24Z" transform="translate(-27.37 -14.83)"/><path class="cls-3" d="M81,83.94l4,0-2.73.54Z" transform="translate(-27.37 -14.83)"/><path class="cls-4" d="M266.16,48.47l.27-.32Z" transform="translate(-27.37 -14.83)"/><path class="cls-5" d="M71,67.94a16.24,16.24,0,0,0-1.64,1.55c-3.46,4.3-8.2,5.9-13.46,6.16a24.72,24.72,0,0,1-6.53-.58c-7.16-1.58-11.49-6.09-13-13.23a24.61,24.61,0,0,1,.19-11.29A16.45,16.45,0,0,1,51.9,37.69,20.19,20.19,0,0,1,62,39.16,15.41,15.41,0,0,1,70.88,50c.06.25.12.49.19.72,0,.05.06.08.3.35.27-.56.67-1,.67-1.48,0-7.49,5.57-10.7,11.21-11.46a44.32,44.32,0,0,1,11.62,0c6.55.87,9.48,4.42,9.84,11.17.18,3.33.14,6.69.06,10a29.05,29.05,0,0,0,1.37,10.48c.48,1.39.68,2.81-.44,4.1-1.93,2.23-4.44,2.42-6.51.31-1.11-1.13-2-2.45-3-3.72a23.35,23.35,0,0,1-10.88,5C78.56,76.47,74,74.1,71,67.94Zm10-6.3-.81,1.82.3,2.77.89,1.5c1.74,2,4,2.19,6.38,1.76,3.2-.58,5.82-2,7.19-5.11l.28-.91.3-2,.47-4.62c-3.45.77-6.64,1.42-9.8,2.2C84.22,59.52,82.22,59.89,80.93,61.64ZM93.65,48.77c.1-2.08-1.72-2.81-3.29-2.33-3.08.94-6.09,2.11-9.12,3.18L76.79,52a44.14,44.14,0,0,0-4.08,2.46c-5.4,4.06-11.44,5.21-18.08,4.7a43.77,43.77,0,0,0-9.46.71,3.25,3.25,0,0,0-2.05,2c-.33,1.25.68,2.17,1.8,2.76L48,66.49a9.09,9.09,0,0,0,1.48.62c6,1.46,11.5.58,16.33-3.49l3.85-2.85c4.66-3.2,8.84-7.18,14.37-9,2.25-.59,4.5-1.2,6.76-1.76a3.72,3.72,0,0,1,1.41,0,8.65,8.65,0,0,1,1.28.41Zm-50.3,3.61c.06.17.08.46.18.49a15.76,15.76,0,0,0,3.43.89c3.68.19,7.37.32,11.06.26a26.68,26.68,0,0,0,5.59-.83c.48-.1,1.22-1,1.13-1.37a8.63,8.63,0,0,0-1.43-2.67c-.37-.52-1.07-.77-1.52-1.25-.68-.71-1.18-2.06-1.91-2.18-1.8-.28-3.12-1.59-5.12-1.63a9.29,9.29,0,0,0-7.21,2.81c-.73.73-1.5,1.42-2.25,2.13l-.9-1.19-.72,1.48-1.76-1.17C41.35,50,42.21,51.26,43.35,52.38Z" transform="translate(-27.37 -14.83)"/><path class="cls-6" d="M168.48,48.49c.69.28,1.19.47,1.68.68,7.78,3.3,10.57,11.65,6.39,19-2.66,4.7-7,6.92-12.07,7.16-8,.36-16,.34-24,.34-2.95,0-4.55-1.71-4.91-4.63a13,13,0,0,1-.1-1.65q0-19.41,0-38.82c0-4.6,1.84-6.43,6.49-6.4,7.19.06,14.39,0,21.57.31a12.34,12.34,0,0,1,11.56,8.11,11.87,11.87,0,0,1-5,14.86ZM145.89,67.78c4.72,0,9.3.07,13.87,0a11.2,11.2,0,0,0,4-1c2.83-1.22,4.11-3.65,3.89-7.07a5.82,5.82,0,0,0-4.44-5.73,29.31,29.31,0,0,0-6.32-.92c-3.63-.14-7.26,0-11,0V67.78ZM146,45.37c3.29,0,6.43.06,9.56,0a30,30,0,0,0,5.19-.53,6.3,6.3,0,0,0,4.94-6.3c0-3.23-1.31-5.07-4.68-5.74a53.81,53.81,0,0,0-7.72-.74c-2.41-.12-4.84,0-7.29,0Z" transform="translate(-27.37 -14.83)"/><path class="cls-7" d="M199.76,76.68c-5.57,0-10.88-1-15.19-4.82a14.27,14.27,0,0,1-5.2-9.79,4.53,4.53,0,0,1,3-4.94,4.28,4.28,0,0,1,5.41,2c.91,1.54,1.56,3.23,2.39,4.81a9.06,9.06,0,0,0,8.29,5,13.73,13.73,0,0,0,7.28-1.28c2.53-1.37,4.27-3.28,4.22-6.36a6.1,6.1,0,0,0-4.52-5.9c-3.42-1.2-7-2-10.48-3s-6.9-2-9.8-4.31a13.19,13.19,0,0,1,1.22-21.46A22.34,22.34,0,0,1,197,23.4c4.54-.32,9,0,13.18,2,3.93,1.92,6.92,4.74,7.8,9.25.72,3.7-2,6.72-5.48,6.05a4.34,4.34,0,0,1-2.23-1.3,13.39,13.39,0,0,1-1.75-2.77c-2.69-5-5.22-6.21-11.34-5.71a8.89,8.89,0,0,0-5.43,2.27c-2.44,2.25-2.44,5.73.39,7.4a39.51,39.51,0,0,0,7.72,3c3.6,1.18,7.32,2,10.86,3.31,5.63,2.09,9.28,5.88,9.54,12.27.3,7.13-2.81,12.18-9.17,15.26C207.83,76.07,204.45,76.67,199.76,76.68Z" transform="translate(-27.37 -14.83)"/><path class="cls-7" d="M241.93,64.46c3.94-11.71,7.76-23.09,11.59-34.46.39-1.13.77-2.27,1.2-3.38,1.08-2.77,3.39-3.93,6.09-3.09a4.66,4.66,0,0,1,3.29,5.86c-.85,3-2,6-3,8.91Q255.24,54.14,249.36,70a24.62,24.62,0,0,1-1.21,2.73,6.76,6.76,0,0,1-6.05,4c-3.1.14-5.6-1-6.86-3.81-1.74-4-3.23-8-4.73-12.09q-5.3-14.3-10.49-28.63a18.41,18.41,0,0,1-.84-3,4.86,4.86,0,0,1,3.24-5.56c2.51-.87,5.11-.07,6.07,2.3,1.71,4.19,3.17,8.49,4.63,12.77,2.78,8.11,5.48,16.24,8.22,24.36C241.47,63.38,241.63,63.73,241.93,64.46Z" transform="translate(-27.37 -14.83)"/><path class="cls-8" d="M109.48,38.42c0-2.38,0-4.67,0-7a23.89,23.89,0,0,1,.11-2.39A4.45,4.45,0,0,1,114,25a4.39,4.39,0,0,1,4.57,3.86c.23,2,.17,4.09.22,6.13,0,1.1,0,2.2,0,3.51,1.34,0,2.62,0,3.89,0a3.46,3.46,0,0,1,3.17,1.65,3,3,0,0,1-1.73,4.55,44.76,44.76,0,0,1-5.27.69c0,.27-.06.65-.06,1q0,8.69,0,17.38,0,.45,0,.9c.18,3.12,1.21,4,4.31,3.56.79-.1,1.57-.3,2.36-.38,1.86-.18,2.91.42,3.45,1.92A3.13,3.13,0,0,1,127.61,74,13.23,13.23,0,0,1,124,75.29a18.23,18.23,0,0,1-8.31-.07A7.14,7.14,0,0,1,109.89,69a31.76,31.76,0,0,1-.4-4.77c0-5.8,0-11.59,0-17.39V45.35C105,44.69,104,44,104.11,41.69,104.18,39.53,105.46,38.72,109.48,38.42Z" transform="translate(-27.37 -14.83)"/><path class="cls-9" d="M45.3,49c.75-.71,1.52-1.4,2.25-2.13a9.29,9.29,0,0,1,7.21-2.81c2,0,3.32,1.35,5.12,1.63.73.12,1.23,1.47,1.91,2.18.45.48,1.15.73,1.52,1.25a8.63,8.63,0,0,1,1.43,2.67c.09.35-.65,1.27-1.13,1.37A26.68,26.68,0,0,1,58,54c-3.69.06-7.38-.07-11.06-.26a15.76,15.76,0,0,1-3.43-.89c-.1,0-.12-.32-.18-.49Z" transform="translate(-27.37 -14.83)"/><path class="cls-10" d="M44.92,64.71c-1.12-.59-2.13-1.51-1.8-2.76a3.25,3.25,0,0,1,2.05-2,43.77,43.77,0,0,1,9.46-.71c6.64.51,12.68-.64,18.08-4.7A44.14,44.14,0,0,1,76.79,52c.77,0,1.53.08,2.3,0,1.64-.08,3.28-.2,4.93-.31-5.53,1.82-9.71,5.8-14.37,9a3.45,3.45,0,0,0-1.23-.32C60.58,61.85,52.75,63.29,44.92,64.71Z" transform="translate(-27.37 -14.83)"/><path class="cls-11" d="M44.92,64.71c7.83-1.42,15.66-2.86,23.5-4.26a3.45,3.45,0,0,1,1.23.32L65.8,63.62a6,6,0,0,0-1.74-.31c-1.32.17-2.61.5-3.92.76L48,66.49Z" transform="translate(-27.37 -14.83)"/><path class="cls-12" d="M94.88,64.38c-1.37,3.15-4,4.53-7.19,5.11-2.41.43-4.64.22-6.38-1.76.49-1.72,2.14-1.5,3.35-1.81,2.8-.71,5.66-1.2,8.51-1.72A6,6,0,0,1,94.88,64.38Z" transform="translate(-27.37 -14.83)"/><path class="cls-13" d="M48,66.49l12.15-2.42c1.31-.26,2.6-.59,3.92-.76a6,6,0,0,1,1.74.31C61,67.69,55.47,68.57,49.47,67.11A9.09,9.09,0,0,1,48,66.49Z" transform="translate(-27.37 -14.83)"/><path class="cls-14" d="M80.42,66.23l-.3-2.77c2-.45,4-1,6.09-1.34,3.06-.58,6.14-1.08,9.21-1.62l0,1-.3,2c-.44-.2-.92-.62-1.31-.55-4.16.82-8.32,1.7-12.47,2.61C81,65.61,80.74,66,80.42,66.23Z" transform="translate(-27.37 -14.83)"/><path class="cls-11" d="M84,51.77c-1.65.11-3.29.23-4.93.31-.77,0-1.53,0-2.3,0l4.45-2.42a9.88,9.88,0,0,0,1.63,0c3.12-.5,6.24-.94,9.32-1.61.92-.2,1.09.27,1.46.73l-.18,1.67A8.65,8.65,0,0,0,92.19,50a3.72,3.72,0,0,0-1.41,0C88.52,50.57,86.27,51.18,84,51.77Z" transform="translate(-27.37 -14.83)"/><path class="cls-15" d="M95.46,61.47c0-.32,0-.65,0-1,.12-1.28-.3-1.73-1.65-1.35-1.77.51-3.57.87-5.38,1.21-2.48.47-5,.86-7.46,1.28,1.29-1.75,3.29-2.12,5.2-2.59,3.16-.78,6.35-1.43,9.8-2.2Z" transform="translate(-27.37 -14.83)"/><path class="cls-16" d="M80.93,61.64c2.49-.42,5-.81,7.46-1.28,1.81-.34,3.61-.7,5.38-1.21,1.35-.38,1.77.07,1.65,1.35-3.07.54-6.15,1-9.21,1.62-2,.39-4.06.89-6.09,1.34Z" transform="translate(-27.37 -14.83)"/><path class="cls-17" d="M80.42,66.23c.32-.24.6-.62,1-.7,4.15-.91,8.31-1.79,12.47-2.61.39-.07.87.35,1.31.55l-.28.91a6,6,0,0,0-1.71-.18c-2.85.52-5.71,1-8.51,1.72-1.21.31-2.86.09-3.35,1.81C81,67.23,80.71,66.73,80.42,66.23Z" transform="translate(-27.37 -14.83)"/><path class="cls-13" d="M93.65,48.77c-.37-.46-.54-.93-1.46-.73-3.08.67-6.2,1.11-9.32,1.61a9.88,9.88,0,0,1-1.63,0c3-1.07,6-2.24,9.12-3.18C91.93,46,93.75,46.69,93.65,48.77Z" transform="translate(-27.37 -14.83)"/><path class="cls-18" d="M45.3,49l-1.95,3.35c-1.14-1.12-2-2.34-1.43-4.23l1.76,1.17.72-1.48Z" transform="translate(-27.37 -14.83)"/><path class="cls-1" d="M145.89,67.78V53c3.77,0,7.4-.1,11,0a29.31,29.31,0,0,1,6.32.92,5.82,5.82,0,0,1,4.44,5.73c.22,3.42-1.06,5.85-3.89,7.07a11.2,11.2,0,0,1-4,1C155.19,67.85,150.61,67.78,145.89,67.78Z" transform="translate(-27.37 -14.83)"/><path class="cls-19" d="M146,45.37V32c2.45,0,4.88-.09,7.29,0a53.81,53.81,0,0,1,7.72.74c3.37.67,4.71,2.51,4.68,5.74a6.3,6.3,0,0,1-4.94,6.3,30,30,0,0,1-5.19.53C152.38,45.43,149.24,45.37,146,45.37Z" transform="translate(-27.37 -14.83)"/></svg>