<svg id="Layer_1" data-name="Layer 1" xmlns="http://www.w3.org/2000/svg" viewBox="0 0 268.8 182.96"><defs><style>.cls-1{fill:#fe8401;}.cls-2{fill:#fe8402;}</style></defs><path class="cls-1" d="M150.49,58.34c9.22,2.24,18.67,3.45,27.26,6.84,32.33,12.76,64.39,26.22,96.53,39.47a37.93,37.93,0,0,1,7,3.65c4.64,3.16,4.69,6.49.21,9.74a29.88,29.88,0,0,1-6.14,3.39C242.13,135.11,209,149,175.58,162.26a67.08,67.08,0,0,1-50.78-.19c-33-13.19-65.74-26.84-98.55-40.38a32.36,32.36,0,0,1-7.93-4.61c-3-2.45-3-5.39.1-7.79a35,35,0,0,1,8-4.51C58.83,91.39,91.17,77.84,123.77,65,132.09,61.66,141.27,60.55,150.49,58.34Z" transform="translate(-16.08 -58.34)"/><path class="cls-2" d="M154.86,241.29c-13.76-.38-23.08-1.78-32.06-5.52-32-13.27-64-26.36-96-39.58A35.74,35.74,0,0,1,19.15,192c-4.08-3.07-4-6.26.2-9.18,2.62-1.81,5.87-2.69,8.58-4.39,10.42-6.51,20.19-5.28,31.21-.19,20.48,9.46,41.63,17.5,62.59,25.91,19,7.6,38.14,7.7,57.1.11,24.91-10,49.7-20.25,74.5-30.53a9.42,9.42,0,0,1,8.33,0c5,2.35,10.35,4.14,15.42,6.44a23.86,23.86,0,0,1,6.17,4.12c2.17,2,2.22,4.62-.11,6.53a30.51,30.51,0,0,1-7.37,4.67c-33.46,13.86-66.88,27.85-100.55,41.19C167.59,239.69,159,240.38,154.86,241.29Z" transform="translate(-16.08 -58.34)"/><path class="cls-2" d="M150.52,203.86c-12.39.46-23.64-3.46-34.85-8.16C86.06,183.27,56.28,171.25,26.6,159A34.45,34.45,0,0,1,19,154.74c-3.74-2.84-3.85-5.93-.05-8.6,3.19-2.25,7.1-3.45,10.45-5.5,9.51-5.79,18.39-4.64,28.39-.13,21.38,9.64,43.24,18.23,65.05,26.87a72.73,72.73,0,0,0,55,.12c25.36-10,50.48-20.69,75.79-30.84a12.42,12.42,0,0,1,7.81,0,156.64,156.64,0,0,1,15.49,6.25,23,23,0,0,1,5.57,3.46c3.19,2.72,3.19,5.43-.12,8.09a27.66,27.66,0,0,1-6.79,4c-33.62,13.88-67.18,27.92-101,41.3-7.49,3-15.92,3.55-23.91,5.22Z" transform="translate(-16.08 -58.34)"/></svg>