<svg id="Layer_1" data-name="Layer 1" xmlns="http://www.w3.org/2000/svg" viewBox="0 0 257.05 257.05"><defs><style>.cls-1{fill:#fefefe;}.cls-2{fill:#363636;}.cls-3{fill:#deb50d;}.cls-4{fill:#dfb50d;}.cls-5{fill:#dcdcdc;}.cls-6{fill:#ddd;}.cls-7{fill:#373636;}.cls-8{fill:#383838;}</style></defs><path class="cls-1" d="M21.25,278.08H278.17V21.16s.12,0,.12.07,0,.34,0,.51V278.21H21.83A2.86,2.86,0,0,1,21.25,278.08Z" transform="translate(-21.25 -21.16)"/><path class="cls-2" d="M106.81,232.19c-3.13.54-6,1-8.88,1.54L72.57,238.2c-7.62,1.35-15.25,2.68-22.87,4.07-4,.73-8,.86-11.79-1a9.21,9.21,0,0,1-5.73-8.92q0-77.68-.06-155.36c0-6.42,2.88-10.69,7.86-14,3.41-2.3,7.3-3.19,11.29-3.88,13.28-2.31,26.54-4.68,39.82-7q18.36-3.24,36.74-6.44,8.17-1.44,16.36-2.9l26.95-4.88c5-.9,9.93-1.82,14.9-2.68,7.82-1.34,15.66-2.62,23.48-4,8.3-1.44,16.6-2.93,24.89-4.4,5.45-1,10.88-2.08,16.36-2.86,4.32-.62,8.52,0,12.06,2.87a8.56,8.56,0,0,1,3.26,6.92q0,78.29,0,156.56A14.4,14.4,0,0,1,261,201.57a23.55,23.55,0,0,1-12.08,5.56q-12.63,2.2-25.25,4.46l-28.92,5.09-27.14,4.79a17.88,17.88,0,0,1-2.48.43c-2.18.07-3.64,1.21-5.08,2.74q-21.21,22.55-42.51,45c-1.49,1.57-3,3.16-4.46,4.73a12.8,12.8,0,0,1-1.11,1.1c-1.52,1.26-3.1,1.06-3.8-.77a17.61,17.61,0,0,1-1.22-5.58c-.18-4.53-.08-9.07-.08-13.6q0-10.78,0-21.56ZM48.71,140v86.86l3.51-.73c11-2.32,22.06-4.58,33.06-7a50.38,50.38,0,0,0,16.61-6.49c5.44-3.5,8.73-8.35,8.86-15,.11-5.38.07-10.76,0-16.13a8.56,8.56,0,0,0-5.43-8.36,22.76,22.76,0,0,0-5.67-1.41,31.92,31.92,0,0,0-4.59-.05,1.78,1.78,0,0,1,.83-.53,25.16,25.16,0,0,0,7.95-4.42c3-2.55,5.11-5.66,5.26-9.65.18-5,.15-10,0-15.05a8.7,8.7,0,0,0-4.74-7.62,18.51,18.51,0,0,0-4.21-1.71,34.9,34.9,0,0,0-15.52-.11c-7.83,1.47-15.63,3.16-23.45,4.77Zm91.13,41.1a4.67,4.67,0,0,0-.75,0c-7.22,1.5-14.44,3-21.65,4.55a1.4,1.4,0,0,0-.85,1,86.19,86.19,0,0,0,.25,10.91c.73,5.51,3.71,9.52,9.29,11.09a25.31,25.31,0,0,0,5,.84,57.35,57.35,0,0,0,15-1.19,80.6,80.6,0,0,0,18.72-5.61c7.09-3.26,11.79-8.44,13.32-16.25.83-4.2.68-8.45.65-12.7a12.27,12.27,0,0,0-3.41-8.36,21.46,21.46,0,0,0-7.11-5.46c-6.22-2.77-12.49-5.44-18.7-8.24a31.45,31.45,0,0,1-5.86-3.23c-3.5-2.6-4.13-6.19-2.73-10.23a6.41,6.41,0,0,1,2.25-2.86,11.56,11.56,0,0,1,7.4-2,3,3,0,0,1,3,2.31,32.59,32.59,0,0,1,.69,4.62c.11,1.21,0,2.44,0,3.62.3.05.38.09.45.07,7.46-1.54,14.91-3.07,22.36-4.65a1.23,1.23,0,0,0,.74-.87,34,34,0,0,0-.24-10.31c-1.36-7.08-5.36-10.9-12.48-11.87a43.89,43.89,0,0,0-14.23.77c-7.35,1.4-14.55,3.28-21.22,6.79-6.12,3.22-10.61,7.85-12.42,14.71a38.89,38.89,0,0,0-.62,14,10.56,10.56,0,0,0,5.12,8.15,47.21,47.21,0,0,0,5.66,3.41c5.16,2.39,10.41,4.57,15.6,6.91,2.73,1.23,5.44,2.54,8.08,4a6.17,6.17,0,0,1,3.31,4.65,30.33,30.33,0,0,1,.29,6.09,5.91,5.91,0,0,1-3.5,5.12,14.91,14.91,0,0,1-6.61,1.6,4,4,0,0,1-4.23-3.2,15.43,15.43,0,0,1-.52-3.31C139.77,184.3,139.84,182.7,139.84,181.08Zm37.78-68c6.87,27.6,13.71,55,20.55,82.5a7,7,0,0,0,.85-.08c10.12-2.11,20.24-4.25,30.37-6.33a1.43,1.43,0,0,0,1.27-1.3q2.52-11.26,5.07-22.52,6.93-30.74,13.87-61.47c.45-2,.87-4,1.34-6.06l-.87.16c-7.54,1.56-15.07,3.15-22.62,4.67-1.12.22-1.43.76-1.59,1.79q-2.18,14-4.43,28-2.72,17.1-5.44,34.21l-1.53,9.53h-.27l-11.74-68.33Zm25.4-62V104.2c4.08-.85,8-1.72,12-2.48.91-.18,1.15-.53,1.13-1.41-.09-6-.12-12-.18-17.93-.05-4.73-.13-9.46-.17-14.2,0-2.89,0-5.79,0-8.68.55,1.17.94,2.37,1.38,3.56q6.4,17.28,12.82,34.56c.26.7.55.86,1.32.69,3.24-.74,6.51-1.36,9.77-2l9.24-2V41.17c-4.15.87-8.22,1.76-12.3,2.55-.86.17-1.11.46-1.09,1.32.09,4.29.13,8.58.17,12.87q.13,12.82.24,25.64c0,.75,0,1.51,0,2.35-4.84-13.1-9.63-26.06-14.41-39ZM188.29,79.38c1.28-.64,2.54-1.15,3.69-1.86,3.15-2,5-4.64,4.81-8.53a64.06,64.06,0,0,1,0-6.5c.21-4.37-2.44-6.1-5.23-6.89a18.53,18.53,0,0,0-8.34-.33c-5.28.93-10.53,2.06-15.79,3.12-2.54.51-5.07,1.06-7.56,1.58v53.15l13.95-2.92V87.28c1.7-.34,3.36-.78,5.06-1,3.23-.44,4.57.77,4.58,4,0,5.1,0,10.19,0,15.29a1.9,1.9,0,0,0,2.46,2.09c1.34-.24,2.68-.53,4-.81l10-2.11c-2.32-1-2.18-2.69-2.16-4.4,0-4.61,0-9.23,0-13.84,0-4.41-2.08-6.71-6.44-7.1C190.39,79.3,189.39,79.38,188.29,79.38ZM146.62,63c-.49.07-.8.1-1.11.17-5.53,1.16-11,2.4-16.59,3.43a2.77,2.77,0,0,0-2.58,2.57c-3.44,15.52-7,31-10.48,46.53-.52,2.33-1,4.65-1.55,7a2.25,2.25,0,0,0,.49,0c4.66-1,9.34-1.91,14-2.94a1.52,1.52,0,0,0,.86-1c.4-1.92.7-3.87,1-5.8.48-2.92.47-2.94,3.3-3.55s5.46-1.13,8.31-1.72c.58,3,1.13,6,1.7,9l15.21-3.17C155,96.64,150.82,79.88,146.62,63ZM82.54,76.1v53.16l30.72-6.41v-9.79L97,116.42c-.11-.21-.18-.28-.18-.35,0-4,0-7.94,0-11.92,0-.29.5-.77.84-.84,3.09-.7,6.19-1.32,9.29-2l5.66-1.21V90.37L96.81,93.65c0-3.47,0-6.83,0-10.19,0-.23.45-.59.74-.66,2.66-.6,5.33-1.14,8-1.7l7.7-1.63V69.69ZM48.76,136.4,79.21,130v-9.79l-15.72,3.27V80.16c-4.54,1-9,1.94-13.4,2.78-1.15.22-1.36.66-1.36,1.72q.06,25.11,0,50.21Z" transform="translate(-21.25 -21.16)"/><path class="cls-3" d="M48.71,140l12.48-2.61c7.82-1.61,15.62-3.3,23.45-4.77a34.9,34.9,0,0,1,15.52.11,18.51,18.51,0,0,1,4.21,1.71,8.7,8.7,0,0,1,4.74,7.62c.15,5,.18,10,0,15.05-.15,4-2.29,7.1-5.26,9.65a25.16,25.16,0,0,1-7.95,4.42,1.78,1.78,0,0,0-.83.53,31.92,31.92,0,0,1,4.59.05,22.76,22.76,0,0,1,5.67,1.41,8.56,8.56,0,0,1,5.43,8.36c.06,5.37.1,10.75,0,16.13-.13,6.62-3.42,11.47-8.86,15a50.38,50.38,0,0,1-16.61,6.49c-11,2.43-22,4.69-33.06,7l-3.51.73Zm23,67.4c4.25-.64,8.37-1.24,12.07-3.34a7.12,7.12,0,0,0,3.89-6.71c0-3.37,0-6.74,0-10.11,0-2.75-1.08-4-3.82-4.49-3.83-.63-7.47.46-11.12,1.38-.88.22-1.09.68-1.08,1.53,0,6.82,0,13.64,0,20.46C71.62,206.49,71.65,206.88,71.68,207.38Zm-.07-37.69c1-.15,1.74-.25,2.48-.4,3.23-.64,6.44-1.33,9.29-3.11,1.82-1.15,3.12-2.67,3.15-4.94,0-2.93.08-5.86-.06-8.78-.12-2.55-1.27-3.62-3.81-3.93-3.34-.42-6.51.5-9.73,1.16-1,.21-1.35.59-1.34,1.65,0,5.62,0,11.23,0,16.85Z" transform="translate(-21.25 -21.16)"/><path class="cls-4" d="M139.84,181.08c0,1.62-.07,3.22,0,4.81a15.43,15.43,0,0,0,.52,3.31,4,4,0,0,0,4.23,3.2,14.91,14.91,0,0,0,6.61-1.6,5.91,5.91,0,0,0,3.5-5.12,30.33,30.33,0,0,0-.29-6.09,6.17,6.17,0,0,0-3.31-4.65c-2.64-1.42-5.35-2.73-8.08-4-5.19-2.34-10.44-4.52-15.6-6.91a47.21,47.21,0,0,1-5.66-3.41,10.56,10.56,0,0,1-5.12-8.15,38.89,38.89,0,0,1,.62-14c1.81-6.86,6.3-11.49,12.42-14.71,6.67-3.51,13.87-5.39,21.22-6.79a43.89,43.89,0,0,1,14.23-.77c7.12,1,11.12,4.79,12.48,11.87a34,34,0,0,1,.24,10.31,1.23,1.23,0,0,1-.74.87c-7.45,1.58-14.9,3.11-22.36,4.65-.07,0-.15,0-.45-.07,0-1.18.08-2.41,0-3.62a32.59,32.59,0,0,0-.69-4.62,3,3,0,0,0-3-2.31,11.56,11.56,0,0,0-7.4,2,6.41,6.41,0,0,0-2.25,2.86c-1.4,4-.77,7.63,2.73,10.23a31.45,31.45,0,0,0,5.86,3.23c6.21,2.8,12.48,5.47,18.7,8.24a21.46,21.46,0,0,1,7.11,5.46,12.27,12.27,0,0,1,3.41,8.36c0,4.25.18,8.5-.65,12.7-1.53,7.81-6.23,13-13.32,16.25a80.6,80.6,0,0,1-18.72,5.61,57.35,57.35,0,0,1-15,1.19,25.31,25.31,0,0,1-5-.84c-5.58-1.57-8.56-5.58-9.29-11.09a86.19,86.19,0,0,1-.25-10.91,1.4,1.4,0,0,1,.85-1c7.21-1.55,14.43-3,21.65-4.55A4.67,4.67,0,0,1,139.84,181.08Z" transform="translate(-21.25 -21.16)"/><path class="cls-4" d="M177.62,113.06l24.83-5.18,11.74,68.33h.27l1.53-9.53q2.72-17.11,5.44-34.21,2.23-14,4.43-28c.16-1,.47-1.57,1.59-1.79,7.55-1.52,15.08-3.11,22.62-4.67l.87-.16c-.47,2.11-.89,4.08-1.34,6.06q-6.93,30.74-13.87,61.47-2.55,11.25-5.07,22.52a1.43,1.43,0,0,1-1.27,1.3c-10.13,2.08-20.25,4.22-30.37,6.33a7,7,0,0,1-.85.08C191.33,168.1,184.49,140.66,177.62,113.06Z" transform="translate(-21.25 -21.16)"/><path class="cls-5" d="M203,51.05l19.92-4.17c4.78,13,9.57,25.92,14.41,39,0-.84,0-1.6,0-2.35q-.12-12.83-.24-25.64c0-4.29-.08-8.58-.17-12.87,0-.86.23-1.15,1.09-1.32,4.08-.79,8.15-1.68,12.3-2.55V94.31l-9.24,2c-3.26.68-6.53,1.3-9.77,2-.77.17-1.06,0-1.32-.69q-6.39-17.28-12.82-34.56c-.44-1.19-.83-2.39-1.38-3.56,0,2.89,0,5.79,0,8.68,0,4.74.12,9.47.17,14.2.06,6,.09,12,.18,17.93,0,.88-.22,1.23-1.13,1.41-4,.76-7.92,1.63-12,2.48Z" transform="translate(-21.25 -21.16)"/><path class="cls-6" d="M188.29,79.38c1.1,0,2.1-.08,3.09,0,4.36.39,6.43,2.69,6.44,7.1,0,4.61,0,9.23,0,13.84,0,1.71-.16,3.42,2.16,4.4l-10,2.11c-1.33.28-2.67.57-4,.81a1.9,1.9,0,0,1-2.46-2.09c0-5.1,0-10.19,0-15.29,0-3.24-1.35-4.45-4.58-4-1.7.23-3.36.67-5.06,1V110.2l-13.95,2.92V60c2.49-.52,5-1.07,7.56-1.58,5.26-1.06,10.51-2.19,15.79-3.12a18.53,18.53,0,0,1,8.34.33c2.79.79,5.44,2.52,5.23,6.89a64.06,64.06,0,0,0,0,6.5c.2,3.89-1.66,6.58-4.81,8.53C190.83,78.23,189.57,78.74,188.29,79.38ZM173.88,66.25V78.41c2.15-.68,4.19-1.21,6.13-2A3.61,3.61,0,0,0,182.37,73c0-1.52.11-3,0-4.57-.08-2-.93-2.88-2.94-2.81C177.61,65.63,175.76,66,173.88,66.25Z" transform="translate(-21.25 -21.16)"/><path class="cls-5" d="M146.62,63c4.2,16.87,8.38,33.63,12.57,50.48L144,116.66c-.57-3-1.12-5.91-1.7-9-2.85.59-5.58,1.14-8.31,1.72s-2.82.63-3.3,3.55c-.32,1.93-.62,3.88-1,5.8a1.52,1.52,0,0,1-.86,1c-4.65,1-9.33,2-14,2.94a2.25,2.25,0,0,1-.49,0c.52-2.37,1-4.69,1.55-7,3.51-15.51,7-31,10.48-46.53a2.77,2.77,0,0,1,2.58-2.57c5.55-1,11.06-2.27,16.59-3.43C145.82,63.11,146.13,63.08,146.62,63Zm-6,35.21c-1.26-7.77-2.5-15.37-3.74-23l-.24,0c-1.29,8.17-2.58,16.33-3.89,24.64Z" transform="translate(-21.25 -21.16)"/><path class="cls-5" d="M82.54,76.1l30.75-6.41v9.78l-7.7,1.63c-2.67.56-5.34,1.1-8,1.7-.29.07-.74.43-.74.66,0,3.36,0,6.72,0,10.19l15.83-3.28v9.76L107,101.34c-3.1.65-6.2,1.27-9.29,2-.34.07-.84.55-.84.84,0,4,0,7.95,0,11.92,0,.07.07.14.18.35l16.24-3.36v9.79l-30.72,6.41Z" transform="translate(-21.25 -21.16)"/><path class="cls-6" d="M48.76,136.4v-1.53q0-25.11,0-50.21c0-1.06.21-1.5,1.36-1.72,4.44-.84,8.86-1.82,13.4-2.78v43.36l15.72-3.27V130Z" transform="translate(-21.25 -21.16)"/><path class="cls-2" d="M71.68,207.38c0-.5-.06-.89-.06-1.28,0-6.82,0-13.64,0-20.46,0-.85.2-1.31,1.08-1.53,3.65-.92,7.29-2,11.12-1.38,2.74.45,3.81,1.74,3.82,4.49,0,3.37,0,6.74,0,10.11A7.12,7.12,0,0,1,83.75,204C80.05,206.14,75.93,206.74,71.68,207.38Z" transform="translate(-21.25 -21.16)"/><path class="cls-7" d="M71.61,169.69v-1.5c0-5.62,0-11.23,0-16.85,0-1.06.33-1.44,1.34-1.65,3.22-.66,6.39-1.58,9.73-1.16,2.54.31,3.69,1.38,3.81,3.93.14,2.92.08,5.85.06,8.78,0,2.27-1.33,3.79-3.15,4.94-2.85,1.78-6.06,2.47-9.29,3.11C73.35,169.44,72.6,169.54,71.61,169.69Z" transform="translate(-21.25 -21.16)"/><path class="cls-8" d="M173.88,66.25c1.88-.24,3.73-.62,5.59-.68,2-.07,2.86.81,2.94,2.81.07,1.52,0,3.05,0,4.57A3.61,3.61,0,0,1,180,76.42c-1.94.78-4,1.31-6.13,2Z" transform="translate(-21.25 -21.16)"/><path class="cls-8" d="M140.62,98.22l-7.87,1.65c1.31-8.31,2.6-16.47,3.89-24.64l.24,0C138.12,82.85,139.36,90.45,140.62,98.22Z" transform="translate(-21.25 -21.16)"/></svg>