<svg id="Layer_1" data-name="Layer 1" xmlns="http://www.w3.org/2000/svg" xmlns:xlink="http://www.w3.org/1999/xlink" viewBox="0 0 378.31 428.12"><defs><style>.cls-1{fill:url(#linear-gradient);}.cls-2{fill:#fff;}.cls-3,.cls-4{fill:#0064a8;}.cls-3{stroke:#000;stroke-miterlimit:10;}</style><linearGradient id="linear-gradient" x1="64.76" y1="263.65" x2="310.65" y2="57.33" gradientUnits="userSpaceOnUse"><stop offset="0" stop-color="#0064a8"/><stop offset="0.13" stop-color="#036aac"/><stop offset="0.3" stop-color="#0b7cb6"/><stop offset="0.51" stop-color="#189ac7"/><stop offset="0.74" stop-color="#2bc2df"/><stop offset="0.98" stop-color="#42f6fd"/><stop offset="1" stop-color="#44faff"/></linearGradient></defs><circle class="cls-1" cx="187.7" cy="160.49" r="160.49"/><polygon class="cls-2" points="114.75 204.26 143.93 204.26 143.93 87.54 260.65 87.54 260.65 58.36 114.75 58.36 114.75 204.26"/><polygon class="cls-2" points="231.47 116.72 231.47 233.44 114.75 233.44 114.75 262.62 260.65 262.62 260.65 116.72 231.47 116.72"/><rect class="cls-2" x="173.11" y="116.72" width="29.18" height="87.54"/><path class="cls-3" d="M227.36,287.35" transform="translate(-60.76 -35.67)"/><path class="cls-4" d="M80.27,448.6,67.18,410.9h-.24q.53,8.4.52,15.75v22h-6.7V403.46H71.17L83.7,439.37h.19l12.9-35.91h10.44V448.6h-7.1V426.28c0-2.24.05-5.17.17-8.77s.21-5.78.29-6.54h-.25L86.79,448.6Z" transform="translate(-60.76 -35.67)"/><path class="cls-4" d="M148.63,431.47q0,8.37-4.29,13.06t-12,4.69a16.38,16.38,0,0,1-8.46-2.16,14.27,14.27,0,0,1-5.65-6.21,21.06,21.06,0,0,1-2-9.38q0-8.31,4.27-13t12-4.66q7.41,0,11.73,4.77T148.63,431.47Zm-24.85,0q0,11.82,8.73,11.82t8.65-11.82q0-11.7-8.71-11.7c-3,0-5.25,1-6.62,3S123.78,427.7,123.78,431.47Z" transform="translate(-60.76 -35.67)"/><path class="cls-4" d="M187,448.6h-7.29v-21c0-2.64-.53-4.6-1.59-5.9s-2.74-1.94-5-1.94c-3.06,0-5.31.9-6.73,2.71s-2.13,4.85-2.13,9.11v17H157V414.46h5.68l1,4.47H164a10.11,10.11,0,0,1,4.38-3.76,14.63,14.63,0,0,1,6.3-1.33q12.28,0,12.29,12.5Z" transform="translate(-60.76 -35.67)"/><path class="cls-4" d="M212,449.22q-8,0-12.46-4.65t-4.49-12.79q0-8.37,4.16-13.16t11.46-4.78q6.76,0,10.68,4.1t3.92,11.3v3.93H202.54c.1,3.31,1,5.86,2.68,7.64a9.37,9.37,0,0,0,7.14,2.67,26.39,26.39,0,0,0,5.63-.57,29.65,29.65,0,0,0,5.6-1.9v5.89a22.05,22.05,0,0,1-5.37,1.8A32.93,32.93,0,0,1,212,449.22Zm-1.33-29.89a7.25,7.25,0,0,0-5.54,2.2,10.45,10.45,0,0,0-2.49,6.39h15.5q-.06-4.23-2-6.41A7,7,0,0,0,210.69,419.33Z" transform="translate(-60.76 -35.67)"/><path class="cls-4" d="M228.35,414.46h7.9l6.95,19.35a36.89,36.89,0,0,1,2.1,7.78h.25a30.88,30.88,0,0,1,1-4.12q.74-2.42,7.84-23h7.84l-14.6,38.68q-4,10.65-13.28,10.65a20.81,20.81,0,0,1-4.69-.52v-5.74a17.38,17.38,0,0,0,3.73.37q5.25,0,7.38-6.09l1.27-3.21Z" transform="translate(-60.76 -35.67)"/><path class="cls-4" d="M294.24,436.35a11.36,11.36,0,0,1-4.36,9.44q-4.35,3.43-12,3.43t-12.53-2.38v-7a34.79,34.79,0,0,0,6.56,2.28,27.53,27.53,0,0,0,6.47.83c2.92,0,5.08-.55,6.46-1.66a5.45,5.45,0,0,0,2.09-4.48,5.59,5.59,0,0,0-1.92-4.29c-1.27-1.18-3.91-2.56-7.9-4.17s-7-3.57-8.71-5.71a12.14,12.14,0,0,1-2.53-7.72,10.79,10.79,0,0,1,4-8.89q4-3.24,10.77-3.24a31.58,31.58,0,0,1,12.91,2.84l-2.35,6a28.14,28.14,0,0,0-10.74-2.54A8.32,8.32,0,0,0,275,410.7a5.15,5.15,0,0,0-1.85,4.13,5.86,5.86,0,0,0,.74,3,7.58,7.58,0,0,0,2.44,2.36,41,41,0,0,0,6.11,2.93,33.46,33.46,0,0,1,7.29,3.86,11.42,11.42,0,0,1,3.4,4.05A12.16,12.16,0,0,1,294.24,436.35Z" transform="translate(-60.76 -35.67)"/><path class="cls-4" d="M330.2,448.6l-4.41-15.93q-.81-2.54-2.9-11.76h-.28q-1.78,8.34-2.84,11.82l-4.54,15.87h-8l-9.57-34.14H305l4.36,16.82q1.47,6.24,2.09,10.68h.19q.31-2.25.94-5.17c.42-1.94.79-3.4,1.1-4.37l5.18-18h8l5,18c.31,1,.7,2.56,1.16,4.64a35.59,35.59,0,0,1,.82,4.84h.25a91.12,91.12,0,0,1,2.16-10.62l4.41-16.82H348l-9.63,34.14Z" transform="translate(-60.76 -35.67)"/><path class="cls-4" d="M353.42,405.41a4,4,0,0,1,1.07-3,4.14,4.14,0,0,1,3-1.05,4.07,4.07,0,0,1,3,1.05,4,4,0,0,1,1.06,3,4,4,0,0,1-1.06,2.92,4,4,0,0,1-3,1.06,4.11,4.11,0,0,1-3-1.06A4,4,0,0,1,353.42,405.41Zm7.69,43.19h-7.25V414.46h7.25Z" transform="translate(-60.76 -35.67)"/><path class="cls-4" d="M388.8,449.22a12,12,0,0,1-10.06-4.66h-.43c.29,2.88.43,4.63.43,5.25v14h-7.26V414.46h5.87c.17.63.5,2.16,1,4.56h.37q3.39-5.17,10.19-5.18a11.85,11.85,0,0,1,10,4.63q3.56,4.63,3.56,13t-3.63,13.06A12,12,0,0,1,388.8,449.22Zm-1.75-29.45c-2.89,0-5,.84-6.32,2.53s-2,4.38-2,8.09v1.08q0,6.24,2,9t6.45,2.79a6.56,6.56,0,0,0,5.8-3.08c1.36-2.06,2-5,2-8.8s-.67-6.73-2-8.7A6.75,6.75,0,0,0,387.05,419.77Z" transform="translate(-60.76 -35.67)"/><path class="cls-4" d="M425.79,449.22q-8,0-12.45-4.65t-4.5-12.79q0-8.37,4.17-13.16t11.46-4.78q6.75,0,10.68,4.1t3.92,11.3v3.93H416.31c.11,3.31,1,5.86,2.69,7.64a9.37,9.37,0,0,0,7.13,2.67,26.42,26.42,0,0,0,5.64-.57,29.89,29.89,0,0,0,5.6-1.9v5.89a22.05,22.05,0,0,1-5.37,1.8A33,33,0,0,1,425.79,449.22Zm-1.32-29.89a7.28,7.28,0,0,0-5.55,2.2,10.45,10.45,0,0,0-2.48,6.39h15.5q-.06-4.23-2-6.41A7,7,0,0,0,424.47,419.33Z" transform="translate(-60.76 -35.67)"/></svg>