<svg id="Layer_1" data-name="Layer 1" xmlns="http://www.w3.org/2000/svg" xmlns:xlink="http://www.w3.org/1999/xlink" viewBox="0 0 339.43 480.25"><defs><style>.cls-1{fill:#f9f9f9;}.cls-2{fill:url(#New_Gradient_Swatch_3);}.cls-3{fill:url(#New_Gradient_Swatch_1);}.cls-4{fill:url(#New_Gradient_Swatch_1-2);}.cls-5{fill:#fff;}.cls-6{fill:url(#linear-gradient);}</style><linearGradient id="New_Gradient_Swatch_3" y1="198.53" x2="203.66" y2="198.53" gradientUnits="userSpaceOnUse"><stop offset="0" stop-color="#5900e9"/><stop offset="1" stop-color="#59ffe9"/></linearGradient><linearGradient id="New_Gradient_Swatch_1" x1="151.2" y1="189.29" x2="335.34" y2="221.76" gradientUnits="userSpaceOnUse"><stop offset="0" stop-color="#ff2bd4"/><stop offset="1" stop-color="#001bef"/></linearGradient><linearGradient id="New_Gradient_Swatch_1-2" x1="178.07" y1="310.19" x2="205.96" y2="310.19" xlink:href="#New_Gradient_Swatch_1"/><linearGradient id="linear-gradient" x1="98.43" y1="461.21" x2="401.57" y2="461.21" gradientUnits="userSpaceOnUse"><stop offset="0" stop-color="#ff2bd4"/><stop offset="0.12" stop-color="#dd29d8"/><stop offset="0.56" stop-color="#6721e4"/><stop offset="0.86" stop-color="#1d1dec"/><stop offset="1" stop-color="#001bef"/></linearGradient></defs><polygon class="cls-1" points="203.66 0 339.44 198.53 203.66 397.06 67.89 198.53 203.66 0"/><polygon class="cls-2" points="0 198.53 135.77 0 203.66 0 67.89 198.53 203.66 397.06 135.77 397.06 0 198.53"/><polygon class="cls-3" points="161.23 132.37 203.66 0.01 339.44 198.54 203.66 397.06 246.09 264.72 161.23 132.37"/><polygon class="cls-4" points="192.01 289.8 205.96 310.19 192.01 330.59 178.07 310.19 192.01 289.8"/><polygon class="cls-5" points="217.47 65.88 231.42 86.27 217.47 106.66 203.53 86.27 217.47 65.88"/><path class="cls-6" d="M98.43,432.67h14.94v21.46l18.88-21.46h18.56l-21.21,22,23.86,33.92H134.9l-15.42-23.5-6.11,6.27v17.23H98.43Zm58.41,27.8a12.45,12.45,0,0,1,6.51-10.89c3.69-2,8.51-2.82,13.25-2.82,9.89,0,19.45,2.12,19.45,13.63v17.78c0,3.45,0,7.21,1.6,10.42H183.91a15.72,15.72,0,0,1-.8-3.84c-3.53,3.6-8.76,5-13.74,5-8,0-14.22-3.91-14.22-12.29,0-13.24,14.78-12.22,24.27-14.1,2.33-.47,3.61-1.26,3.61-3.76,0-3.06-3.77-4.23-6.59-4.23-3.77,0-6.18,1.64-6.83,5.09Zm17.67,21.07c6.51,0,8.68-3.61,8.36-12-1.93,1.18-5.46,1.41-8.44,2.2s-5.62,2-5.62,5.17S171.46,481.54,174.51,481.54Zm30-21.07A12.47,12.47,0,0,1,211,449.58c3.7-2,8.52-2.82,13.26-2.82,9.88,0,19.44,2.12,19.44,13.63v17.78c0,3.45,0,7.21,1.61,10.42H231.56a15.72,15.72,0,0,1-.8-3.84c-3.54,3.6-8.76,5-13.74,5-8,0-14.22-3.91-14.22-12.29,0-13.24,14.78-12.22,24.26-14.1,2.33-.47,3.62-1.26,3.62-3.76,0-3.06-3.78-4.23-6.59-4.23-3.78,0-6.19,1.64-6.83,5.09Zm17.68,21.07c6.51,0,8.68-3.61,8.36-12-1.93,1.18-5.47,1.41-8.44,2.2s-5.62,2-5.62,5.17S219.11,481.54,222.16,481.54Zm31-33.6h13.26v7.13h.16c2-5.17,6.67-7.91,12.54-7.91a14.56,14.56,0,0,1,3.21.31v12.14a19.64,19.64,0,0,0-5.22-.79c-6.75,0-10.29,4.55-10.29,9.64v20.13H253.17Zm33.75,0h13.26v5.56h.16a14,14,0,0,1,12-6.74c5.22,0,9.88,1.65,12.13,6.58a15.39,15.39,0,0,1,13-6.58c13.25,0,14.7,9.79,14.7,17.55v24.28H338.5V464.7c0-4.39-2.17-7-5.7-7-5.87,0-6.43,4.38-6.43,11v19.9H312.71V465.48c0-4.78-1.45-7.75-5.14-7.75-4.9,0-7,2.74-7,11v19.82H286.92Zm73.84,12.53a12.45,12.45,0,0,1,6.51-10.89c3.69-2,8.51-2.82,13.25-2.82,9.89,0,19.45,2.12,19.45,13.63v17.78c0,3.45,0,7.21,1.6,10.42H387.84a15.28,15.28,0,0,1-.81-3.84c-3.53,3.6-8.76,5-13.74,5-8,0-14.22-3.91-14.22-12.29,0-13.24,14.79-12.22,24.27-14.1,2.33-.47,3.61-1.26,3.61-3.76,0-3.06-3.77-4.23-6.59-4.23-3.77,0-6.18,1.64-6.83,5.09Zm17.68,21.07c6.5,0,8.67-3.61,8.35-12-1.93,1.18-5.46,1.41-8.43,2.2s-5.63,2-5.63,5.17S375.38,481.54,378.44,481.54Z" transform="translate(-80.28 -9.51)"/></svg>