<svg id="Layer_1" data-name="Layer 1" xmlns="http://www.w3.org/2000/svg" xmlns:xlink="http://www.w3.org/1999/xlink" viewBox="0 0 300.06 300.06"><defs><style>.cls-1{fill:#faf6eb;}.cls-2{fill:url(#linear-gradient);}</style><linearGradient id="linear-gradient" x1="30.93" y1="150" x2="269.07" y2="150" gradientUnits="userSpaceOnUse"><stop offset="0" stop-color="#181b4e"/><stop offset="1" stop-color="#07f4c1"/></linearGradient></defs><circle class="cls-1" cx="150.03" cy="150.03" r="150.03"/><path class="cls-2" d="M150.08,128.66c3.38-4.18,6.41-8,9.47-11.71,9.9-12.12,21.61-21.39,37.35-24.88,32.84-7.28,65.91,14.88,71.33,48,5.56,34-17.2,64.59-51.26,68.74-21.78,2.65-39.47-5.28-53.77-21.47-3.64-4.13-7-8.48-10.53-12.72-.77-.94-1.59-1.83-2.69-3.11-4,4.84-7.61,9.4-11.38,13.85-10.46,12.33-23.08,21.11-39.48,23.29-20.3,2.69-37.49-3.48-51.8-18.21a56.26,56.26,0,0,1-16.38-40.29c-.09-14.89,4.76-28.4,15-39.44,20.53-22.22,50.87-26.38,76.77-10.65,9.36,5.68,16,14.29,22.75,22.69C146.87,124.61,148.31,126.44,150.08,128.66Zm-60-13A34.68,34.68,0,0,0,56.55,141.8c-3.86,14.72,3.06,30.69,16.67,38.48a33.48,33.48,0,0,0,41-5.78c6.71-7,12.58-14.9,18.62-22.55.65-.83.47-3.12-.23-4.08-4.14-5.64-8.5-11.13-12.89-16.59C112.12,121.78,102.74,115.54,90,115.61Zm120,0c-9.18,0-17.53,2.75-23.76,9.41-6.91,7.38-13,15.54-19.3,23.46a3.38,3.38,0,0,0,.1,3.19c6,7.71,11.61,15.77,18.3,22.83,10.88,11.51,28.24,13.47,41.79,5.62a35.06,35.06,0,0,0,16-38.83A34.53,34.53,0,0,0,210,115.61Z" transform="translate(0.95 0.03)"/></svg>