<svg id="Layer_1" data-name="Layer 1" xmlns="http://www.w3.org/2000/svg" xmlns:xlink="http://www.w3.org/1999/xlink" viewBox="0 0 300.06 300.06"><defs><style>.cls-1{fill:#faf6eb;}.cls-2{fill:url(#linear-gradient);}</style><linearGradient id="linear-gradient" x1="58.65" y1="150" x2="241.35" y2="150" gradientUnits="userSpaceOnUse"><stop offset="0" stop-color="#07f4c1"/><stop offset="0.69" stop-color="#181b4e"/></linearGradient></defs><circle class="cls-1" cx="150.03" cy="150.03" r="150.03"/><path class="cls-2" d="M241.29,99.61c-2.07,31.16-6.7,61.73-18.9,90.72-8.55,20.33-20.37,38.3-38.58,51.42a81.77,81.77,0,0,1-31.4,14.18c-2.66.55-5.76-.05-8.46-.81-24.13-6.81-41.92-21.92-55.07-42.84-14.18-22.55-21.45-47.58-25.8-73.6a320.25,320.25,0,0,1-4.43-55.05,5,5,0,0,1,2.89-5A362.6,362.6,0,0,1,139.67,45.2c9-2.63,17-1,25.39,1.5,25.7,7.67,50,18.62,73.22,31.9,2.25,1.28,3.17,2.62,3.07,5.22C241.14,89.07,241.29,94.34,241.29,99.61ZM149.84,244.19a74.38,74.38,0,0,0,25.79-11.52c16.4-11.46,27.25-27.31,35-45.4,13.24-31.12,17.61-64,18.2-97.5A5.31,5.31,0,0,0,226.27,86a330.18,330.18,0,0,0-59.5-26.09c-5.44-1.75-11-3.09-16.93-4.72Z" transform="translate(0.95 0.03)"/></svg>