<svg id="Layer_1" data-name="Layer 1" xmlns="http://www.w3.org/2000/svg" xmlns:xlink="http://www.w3.org/1999/xlink" viewBox="0 0 300.06 300.06"><defs><style>.cls-1{fill:#faf6eb;}.cls-2{fill:url(#New_Gradient_Swatch_1);}</style><linearGradient id="New_Gradient_Swatch_1" x1="87.71" y1="183.49" x2="225.18" y2="104.12" gradientUnits="userSpaceOnUse"><stop offset="0.01" stop-color="#172252"/><stop offset="1" stop-color="#07f0bf"/></linearGradient></defs><circle class="cls-1" cx="150.03" cy="150.03" r="150.03"/><path class="cls-2" d="M150,186.44c-9.82,0-19.64.09-29.46-.1-1.51,0-3.72-1-4.38-2.13-7.47-13.45-14-27.47-22.12-40.5C69.54,104.43,89.53,53.5,134.41,42.09c43-10.93,85.78,25.53,81.85,69.53-1.13,12.68-5.61,23.85-12.2,34.7-7.39,12.17-13.45,25.14-20.34,37.62-.73,1.32-3.14,2.35-4.79,2.39C169.3,186.56,159.67,186.44,150,186.44ZM146.55,184v-6.34q0-45.46,0-90.94c0-3.45.13-6.14,3.64-8.53,4.35-3,4.16-9.18.59-13a9.17,9.17,0,0,0-13.16-.34c-3.74,3.56-4.27,9.9-.12,13,3.88,2.89,3.89,6.26,3.89,10.22q-.08,45.47,0,90.94C141.33,182,140.69,185.56,146.55,184Zm12.42-.18V113.92c0-8.09,8.11-15.42,16.16-14.61,5.7.58,10.22-2.93,10.75-8.36a9.36,9.36,0,0,0-9.29-10c-5.4,0-10,4.3-9.24,9.78.46,3.34-.94,4.72-3.09,6.32a70.18,70.18,0,0,0-7.93,6.37,8.46,8.46,0,0,0-2.58,5.19c-.16,23.93-.07,47.86-.15,71.8C153.59,184.19,155.07,185.18,159,183.77Zm-24.95,0c0-8.89-.79-17.62.17-26.15,1.9-16.71-2-31.09-14.17-43-2-2-2.59-3.92-1.43-7,1.91-5-1.63-10.52-6.79-11.66a9.36,9.36,0,0,0-11.08,7.26c-1.18,5.1,2.48,11.22,7.78,10.9s6.79,2.69,9,5.78c2.54,3.51,5.52,6.77,7.61,10.52,1.73,3.11,3.32,6.76,3.43,10.21.39,13,.22,26,.12,39C128.67,183.1,129.1,185.47,134,183.82Zm36.39.09c4.51,1.32,5.39-.48,5.36-3.81-.11-10-.21-19.93.1-29.88a10.62,10.62,0,0,1,2.87-6.49c4.2-4.3,4.78-10,.83-14a9.23,9.23,0,0,0-13.15,0c-4,4.06-3.44,9.79.8,14a10.4,10.4,0,0,1,3.05,6.35C170.57,161.3,170.41,172.56,170.41,183.91Zm9,26.17c4.35.12,6.38-1,5.92-5.66a55.72,55.72,0,0,1,0-10.17c.34-4.13-1.09-5.63-5.41-5.59q-30,.28-60.08,0c-4.4,0-5.65,1.64-5.35,5.66a69,69,0,0,1,0,10.17c-.31,4.11,1.1,5.71,5.43,5.59,9.82-.27,19.65-.09,29.47-.09C159.43,210,169.45,209.81,179.45,210.08Zm-46.66,38c11.51.19,23,.2,34.53,0,4.9-.1,8.76-2.42,11-7.62H121.61C123.89,245.72,127.83,248,132.79,248.05Zm44.31-24.36c2.66,0,6,.25,5.52-3.55-.17-1.3-3.4-3.12-5.25-3.15q-27.43-.35-54.87,0c-1.84,0-5,1.86-5.22,3.17-.52,3.85,2.89,3.52,5.52,3.53q13.29,0,26.58,0ZM122.8,231c-2.58,0-6.06-.31-5.51,3.55.17,1.23,3.56,2.84,5.5,2.87q27.17.33,54.32,0c1.94,0,5.34-1.62,5.51-2.86.56-3.85-2.9-3.55-5.5-3.56-9.05,0-18.11,0-27.16,0S131.86,231,122.8,231ZM136.93,251c1.28,8.84,1.36,8.91,9.87,8.92h6.76c8,0,8.22-.23,9.34-8.92Zm-16.2-37h58.48v-1.13H120.73Zm58.48,12.7H120.7v1.27h58.53ZM140,71.28c.14,1.58,2.38,4.06,3.83,4.15s3.89-2.2,4.18-3.76-1.73-3.31-3.67-6.56C142.07,68.16,139.87,69.82,140,71.28ZM176.38,86.1c-1.57.31-3.77,2.87-3.71,4.38s2.58,3.77,4.15,3.88,3.11-2.19,6-4.45C179.7,88,177.8,85.83,176.38,86.1Zm-66.44,15.05c-1.56.14-4,2.45-4.07,3.88s2.21,3.9,3.78,4.18,3.28-1.79,6.47-3.76C113.08,103.21,111.4,101,109.94,101.15Zm59.06,35c.21,1.61,2.54,3,3.95,4.4,1.43-1.42,3.79-2.72,4-4.31S175.1,133,173,129.74C170.92,132.92,168.81,134.69,169,136.16Z" transform="translate(-0.11 0.03)"/></svg>