<svg id="Layer_1" data-name="Layer 1" xmlns="http://www.w3.org/2000/svg" xmlns:xlink="http://www.w3.org/1999/xlink" viewBox="0 0 300.06 300.06"><defs><style>.cls-1{fill:#faf6eb;}.cls-2{fill:url(#linear-gradient);}</style><linearGradient id="linear-gradient" x1="50.61" y1="157" x2="249.39" y2="157" gradientUnits="userSpaceOnUse"><stop offset="0" stop-color="#07fac4"/><stop offset="0.74" stop-color="#181b4e"/></linearGradient></defs><circle class="cls-1" cx="150.03" cy="150.03" r="150.03"/><path class="cls-2" d="M67.7,150.48h29c-15.56-26.34-30.75-52.06-46.08-78H249.39c-15.12,26-30.12,51.77-45.41,78.07h28.67c0,6.23.08,12.15-.13,18.06,0,.48-2,1.26-3.08,1.27-11.19.09-22.38.15-33.56,0-2.6,0-3.83.92-5,3q-19.44,33.49-39.06,66.9c-.31.53-.72,1-1.3,1.81-3.84-6.5-7.53-12.73-11.21-19q-14.89-25.22-29.74-50.47a4.21,4.21,0,0,0-4.19-2.31c-11.3.08-22.59,0-33.89,0H67.7ZM84.76,91.72c.55,1.11.82,1.77,1.18,2.39Q101.8,121,117.63,147.9a4.6,4.6,0,0,0,4.58,2.62q28-.15,56,0a4.83,4.83,0,0,0,4.88-2.74q15.48-26.73,31.12-53.37c.44-.76.74-1.61,1.24-2.69Zm85.11,78.41H130.94l19.56,33.13Z" transform="translate(0.95 0.03)"/></svg>