<svg id="Layer_1" data-name="Layer 1" xmlns="http://www.w3.org/2000/svg" xmlns:xlink="http://www.w3.org/1999/xlink" viewBox="0 0 300.06 300.06"><defs><style>.cls-1{fill:#faf6eb;}.cls-2{fill:url(#linear-gradient);}.cls-3{fill:url(#linear-gradient-2);}.cls-4{fill:url(#linear-gradient-3);}</style><linearGradient id="linear-gradient" x1="186.87" y1="124.82" x2="241.47" y2="124.82" gradientUnits="userSpaceOnUse"><stop offset="0.01" stop-color="#b0ff00"/><stop offset="1" stop-color="#00ff80"/></linearGradient><linearGradient id="linear-gradient-2" x1="164.11" y1="86.33" x2="204.86" y2="86.33" xlink:href="#linear-gradient"/><linearGradient id="linear-gradient-3" x1="46.3" y1="175.87" x2="249.8" y2="139.99" gradientUnits="userSpaceOnUse"><stop offset="0" stop-color="#172252"/><stop offset="1" stop-color="#07f2c0"/></linearGradient></defs><circle class="cls-1" cx="150.03" cy="150.03" r="150.03"/><path class="cls-2" d="M232.41,86.41c9.18,15.46,12.75,31.27,4.19,48.08-3.44,6.76-8.77,12-14.77,16.48-7.23,5.44-15,9.81-23.88,12.06-.32.08-.66.14-1,.19a4,4,0,0,1-.69-.06c6.65-20.38,16.32-39.15,28-57-.72.84-1.44,1.67-2.14,2.52s-1.46,1.79-2.17,2.71c-6.66,8.64-13.34,17.27-20,25.94a102.48,102.48,0,0,0-13.07,22.47c0-2.25-.09-4.07,0-5.87A73.51,73.51,0,0,1,194.56,125a76.5,76.5,0,0,1,12.66-17.39A147.46,147.46,0,0,1,232.41,86.41Z" transform="translate(0.06)"/><path class="cls-3" d="M178.68,123.84c-8.43-7.23-14.4-15.6-14.57-27-.08-5.36,2.31-9.88,5-14.25,4.08-6.49,9.21-12.15,14.24-17.88a83.52,83.52,0,0,0,6.48-8,79.17,79.17,0,0,0,4.26-7.9c.3.37.75.86,1.12,1.39,5.29,7.46,9,15.53,9.55,24.8a28.78,28.78,0,0,1-2.26,13c-3.21,7.71-7.69,14.69-12.34,21.58-1.93,2.87-3.8,5.78-6,8.71-.09-2.71-.33-5.44-.24-8.15a38.73,38.73,0,0,1,3.51-14.83c3-6.52,5.66-13.14,6.93-20.22.45-2.46.6-5,.89-7.45l-.38-.06a13.33,13.33,0,0,1-.53,2.63c-1.36,3.28-2.65,6.61-4.28,9.77-1.91,3.68-4.21,7.15-6.21,10.78a42.84,42.84,0,0,0-5.35,23c.12,2.7.23,5.4.3,8.11A16.48,16.48,0,0,1,178.68,123.84Z" transform="translate(0.06)"/><path class="cls-4" d="M118.9,224.9,84.65,190.66c2.8-2.79,5.68-5.63,8.54-8.49,3.32-3.31,6.62-6.64,10-9.94a24.25,24.25,0,0,1,30.09-3.72,8.49,8.49,0,0,0,4.1,1.09c18.7.06,37.4,0,56.1.05a9.92,9.92,0,0,1,8.93,14.74c-2,3.55-5.24,5.16-9.27,5.16q-17.1,0-34.21,0c-2,0-2.88.44-2.75,1.52.21,1.67,1.56,1.42,2.7,1.42,11.35,0,22.71-.08,34.06,0,8.31,0,14.18-6.69,13.58-13.77a2.07,2.07,0,0,1,.63-1.46q14.47-13.17,29-26.26a3.38,3.38,0,0,1,4.92-.1c1.46,1.46,1.42,3.29-.13,5-1.7,1.91-3.42,3.81-5,5.87.28-.19.58-.35.85-.55,2.63-2.05,5.17-4.21,7.9-6.12,3.32-2.33,5.19-1.84,7.4,1.63a10.1,10.1,0,0,1-1.52,12.41Q238.72,181,226.86,192.81c-5.54,5.54-11.1,11.05-16.6,16.61a10.8,10.8,0,0,1-8.07,3.29q-30.15,0-60.3,0a25,25,0,0,0-18.37,7.57ZM153.58,99.65c-.87-2-2.22-2.71-4.41-2.21s-4.13,1-6.19,1.48a4.14,4.14,0,0,1-4.3-1.39c-.89-1-1.79-1.91-2.76-2.77a4.35,4.35,0,0,1-1.5-4.67c.5-2,1-3.94,1.42-5.92.52-2.21-.12-3.52-2.15-4.44-.58-.25-1.15-.5-1.74-.73a3.3,3.3,0,0,0-4.36,1.46q-1.71,2.69-3.35,5.42a4.39,4.39,0,0,1-4.09,2.25H116a4.48,4.48,0,0,1-4.11-2.25c-1.11-1.86-2.25-3.72-3.42-5.55A3.22,3.22,0,0,0,104.28,79c-.68.24-1.35.52-2,.81A3.31,3.31,0,0,0,100.21,84c.48,2.06,1,4.12,1.48,6.19a4.24,4.24,0,0,1-1.41,4.44c-1,.9-2,1.87-2.87,2.86A4.21,4.21,0,0,1,93,98.9c-2.16-.53-4.31-1.06-6.48-1.52a3.22,3.22,0,0,0-3.88,2c-.26.57-.51,1.15-.74,1.73-.84,2.15-.37,3.55,1.63,4.79C85.23,107,87,108,88.7,109.06a4.44,4.44,0,0,1,2.21,4.13c0,1.3-.06,2.61,0,3.91a4.57,4.57,0,0,1-2.38,4.46c-1.79,1-3.55,2.15-5.31,3.26a3.27,3.27,0,0,0-1.45,4.24c.22.64.49,1.26.76,1.88a3.32,3.32,0,0,0,4.18,2.16c2.07-.46,4.13-1,6.19-1.47a4.33,4.33,0,0,1,4.67,1.53,23.78,23.78,0,0,0,2.66,2.65,4.26,4.26,0,0,1,1.45,4.55c-.48,2-1.08,4-1.4,6.06a4.62,4.62,0,0,0,8.67,3c1-1.6,2-3.2,2.94-4.81a4.43,4.43,0,0,1,4.12-2.21h4.06a4.56,4.56,0,0,1,4.22,2.31c1.06,1.79,2.15,3.56,3.25,5.32a3.34,3.34,0,0,0,4.34,1.54,16,16,0,0,0,1.87-.78c2-.94,2.62-2.22,2.12-4.34s-1-4.12-1.49-6.19a4.16,4.16,0,0,1,1.38-4.31,26.72,26.72,0,0,0,2.67-2.65,4.51,4.51,0,0,1,5-1.58c2.06.53,4.12,1,6.2,1.47a3.23,3.23,0,0,0,3.72-1.81c.34-.7.61-1.42.88-2.14a3.32,3.32,0,0,0-1.5-4.47c-1.76-1.1-3.54-2.17-5.31-3.25a4.39,4.39,0,0,1-2.26-4.09c0-1.3.07-2.61,0-3.91a4.68,4.68,0,0,1,2.54-4.66,50.69,50.69,0,0,0,5.17-3.21,11.52,11.52,0,0,0,2-2.51C154.36,101.71,154,100.66,153.58,99.65ZM103,115.25a15.06,15.06,0,1,1,15,15A15,15,0,0,1,103,115.25Zm-.47,137.47,18.36-18.35-45.4-45.43L57.11,207.3ZM89.56,213q10.06,10,20.06,20a2.91,2.91,0,1,1-4.08,4.1q-10-10-20-20a2.91,2.91,0,0,1-.89-3.39c.49-1.19,1.46-1.75,3.08-1.88A7.94,7.94,0,0,1,89.56,213Zm57.7-73.33a1.73,1.73,0,0,0,.49,2.32c.91.64,2,1.1,2.79,1.81a3.78,3.78,0,0,1,1.27,1.95c.4,2.43-.18,4.49-2.73,5.52a5.6,5.6,0,0,0-1.25.73,1.74,1.74,0,0,0-.6,2.29c.79,1.89,1.33,2.18,3.33,1.66a16.6,16.6,0,0,1,2.4-.53,2.91,2.91,0,0,1,1.64.24c2.49,1.5,3,2.92,2.36,5.76-.06.29-.11.57-.18.85-.46,2-.25,2.45,1.34,3.11s2.07.49,3.13-1.23a17.27,17.27,0,0,0,.91-1.48,3.31,3.31,0,0,1,3.15-1.81,4,4,0,0,1,4.47,2.6,11.26,11.26,0,0,0,.74,1.24c.67,1.15,1.6,1.2,2.74.74s1.9-1.14,1.57-2.51a20.7,20.7,0,0,1-.67-3,3.12,3.12,0,0,1,.37-2c1.44-2,3.18-3.39,5.85-2.17.35.16.76.15,1.12.28,1.28.46,2-.09,2.52-1.23s.6-2.25-.66-3c-.78-.49-1.55-1-2.34-1.44-1.1-.62-1.29-1.55-1.43-2.76a4.12,4.12,0,0,1,2.8-4.76,10,10,0,0,0,1-.6c1.24-.71,1.2-1.71.71-2.87s-1.13-1.79-2.44-1.45c-.89.23-1.79.41-2.67.65a2.59,2.59,0,0,1-3-.92c-.32-.42-.89-.69-1.1-1.14a6,6,0,0,1-.72-2.45,18.16,18.16,0,0,1,.66-3.11c.28-1.33-.53-1.9-1.62-2.34a1.9,1.9,0,0,0-2.65.65,22.55,22.55,0,0,1-1.71,2.68,3.51,3.51,0,0,1-1.87,1.13c-2.42.4-4.51-.07-5.48-2.73a5.24,5.24,0,0,0-.66-1.11c-.71-1-1.6-1-2.68-.6s-1.86,1.05-1.57,2.37a18.9,18.9,0,0,1,.68,3.1,5.11,5.11,0,0,1-.69,2.33c-.27.53-.89.88-1.29,1.35a2.44,2.44,0,0,1-2.73.81c-1.11-.31-2.25-.54-3.27-.77C148,137.87,147.63,138.75,147.26,139.68Zm18.42,15.08a7.71,7.71,0,1,1,.17-15.41,7.56,7.56,0,0,1,7.58,7.7A7.75,7.75,0,0,1,165.68,154.76Zm-118.77.29a4.91,4.91,0,0,0-2.32.59,3,3,0,0,0-1.2,3.56,3.25,3.25,0,0,0,3.38,2.21H72.72c2.26,0,3.65-1.24,3.66-3.21S75,155,72.72,155H60C55.61,155,51.26,155,46.91,155.05Zm37-4.85a5.17,5.17,0,0,0,1.84-.27,3.05,3.05,0,0,0,1.85-3.53,3.16,3.16,0,0,0-3.38-2.56q-10.92,0-21.85,0c-2.15,0-3.56,1.24-3.6,3.12s1.35,3.25,3.58,3.26H73.2C76.77,150.21,80.34,150.22,83.91,150.2Z" transform="translate(0.06)"/></svg>