<svg id="Layer_1" data-name="Layer 1" xmlns="http://www.w3.org/2000/svg" xmlns:xlink="http://www.w3.org/1999/xlink" viewBox="0 0 300.06 300.06"><defs><style>.cls-1{fill:#faf6eb;}.cls-2{fill:url(#New_Gradient_Swatch_1);}</style><linearGradient id="New_Gradient_Swatch_1" x1="76.56" y1="203.42" x2="235.46" y2="111.68" gradientUnits="userSpaceOnUse"><stop offset="0.01" stop-color="#172252"/><stop offset="1" stop-color="#07f0bf"/></linearGradient></defs><circle class="cls-1" cx="150.03" cy="150.03" r="150.03"/><path class="cls-2" d="M157.07,68.1c-3.21,0-6.32,0-9.44,0-6.24,0-10.5-4.09-10.6-10.08-.09-5.52,4.53-10,10.58-10q19.54-.06,39.11,0c5.95,0,10.23,4.15,10.28,9.71.05,5.82-4.16,10.12-10.2,10.3-3.24.1-6.49,0-10,0,0,3.72-.05,7.23.07,10.73,0,.38,1,1,1.58,1,10.39,1.45,20.37,4.31,29.46,9.55,13.57,7.81,25.08,18,33,31.69a89.24,89.24,0,0,1-1.61,93.19c-9.17,14.57-21.74,25.05-37.18,32.39-22.78,10.81-45.91,10.86-69,1.59-6.83-2.75-13.08-7.11-19.27-11.21-4.58-3-5.08-9.32-1.74-13.62a9.73,9.73,0,0,1,13.73-1.71c7.79,6,16.29,10.53,25.89,12.72,24.18,5.49,45.86.17,63.43-17.26,17.06-16.91,23.45-37.86,19.25-61.74A65.58,65.58,0,0,0,219,123.53c-14.9-17.33-33.92-25.29-56.65-24.1a63.75,63.75,0,0,0-35,12.73c-3.12,2.3-6.31,3.77-10.21,2.63a9.72,9.72,0,0,1-4-16.45,30.25,30.25,0,0,1,2.43-1.93,81.27,81.27,0,0,1,40-16.45c1.45-.19,1.86-.68,1.81-2.06-.08-3,0-6,0-8.92A7.06,7.06,0,0,0,157.07,68.1ZM154.3,155c-4.66,5.22-6.41,11.08-4.39,17.81,2.07,6.94,7.28,10.69,13.92,12.59,3.19.91,6.28.12,9.4-1.2a18.2,18.2,0,0,0,11.39-17.86,3.66,3.66,0,0,1,.62-2.24c3-4,6.13-8,9.25-12s6.35-7.86,9.45-11.86a10.84,10.84,0,0,0,1.95-3.59A6.92,6.92,0,0,0,203,129a7.31,7.31,0,0,0-8.7.64q-11.28,9-22.51,18.08c-1.49,1.21-2.91,2.38-4.8,1.68C161.89,149.64,157.69,151.16,154.3,155ZM79,128.38c-8.38,0-16.77-.06-25.15,0a8.28,8.28,0,0,0-8,10.56c1.06,4,4.36,6.27,9.35,6.28h62.56a16.09,16.09,0,0,0,2.69-.22,8,8,0,0,0,6.42-5.27,8.31,8.31,0,0,0-7.95-11.36c-10.81-.08-21.62,0-32.43,0Zm-8.71,30.7a8.4,8.4,0,0,0-8.19,11.38c1.34,3.52,4.31,5.45,8.69,5.45q23.68,0,47.38,0a11.65,11.65,0,0,0,3.67-.53,8.35,8.35,0,0,0-2.72-16.24c-8.17-.06-16.34,0-24.52,0S78.39,159.11,70.28,159.08Zm48.1,47.4c5.34,0,9-3.44,9-8.48,0-4.7-3.58-8.27-8.72-8.31q-17.56-.1-35.12,0c-5.17,0-8.76,3.72-8.67,8.59s3.72,8.18,8.83,8.2c5.75,0,11.5,0,17.25,0S112.56,206.5,118.38,206.48Z" transform="translate(0.95 0.03)"/></svg>