<svg id="Layer_1" data-name="Layer 1" xmlns="http://www.w3.org/2000/svg" viewBox="0 0 47.32 47.32"><defs><style>.cls-1{fill:none;}.cls-2{fill:#494949;}.cls-3{fill:#4d4d4d;}.cls-4{fill:#fff;}</style></defs><path class="cls-1" d="M10.23,28.11a7.36,7.36,0,0,1,.6-3,7.36,7.36,0,0,0-.6,3,7.67,7.67,0,0,0,3.32,6.32A7.67,7.67,0,0,1,10.23,28.11Z" transform="translate(-0.95 -0.58)"/><path class="cls-1" d="M14.08,34.75l-.37-.22Z" transform="translate(-0.95 -0.58)"/><path class="cls-2" d="M32.39,20.4a8.48,8.48,0,0,1,4.92,2.81,8.72,8.72,0,0,1,0-5.64A8.51,8.51,0,0,1,32.39,20.4Z" transform="translate(-0.95 -0.58)"/><path class="cls-2" d="M37.31,25.28a8.59,8.59,0,0,1-4.92,2.81,8.55,8.55,0,0,1,4.93,2.8A8.69,8.69,0,0,1,37.31,25.28Z" transform="translate(-0.95 -0.58)"/><path class="cls-2" d="M31.86,27a8.64,8.64,0,0,1,4.87-2.79,8.67,8.67,0,0,1-4.88-2.79A8.54,8.54,0,0,1,31.86,27Z" transform="translate(-0.95 -0.58)"/><path class="cls-2" d="M36.68,16.55a8.74,8.74,0,0,1-4.82-2.77,8.46,8.46,0,0,1-.05,5.66A8.63,8.63,0,0,1,36.68,16.55Z" transform="translate(-0.95 -0.58)"/><path class="cls-2" d="M31.85,29.14a8.5,8.5,0,0,1,0,5.59,8.67,8.67,0,0,1,4.81-2.8A8.8,8.8,0,0,1,31.85,29.14Z" transform="translate(-0.95 -0.58)"/><path class="cls-3" d="M24.61.58A23.66,23.66,0,1,0,48.27,24.24,23.66,23.66,0,0,0,24.61.58ZM32,35.75a1.26,1.26,0,0,0-1.05.6,7.69,7.69,0,0,1-12.63,0,1.14,1.14,0,0,0-.95-.56,7.92,7.92,0,0,1-2.8-.77,3.75,3.75,0,0,1-.44-.24l-.37-.22-.16-.1a7.67,7.67,0,0,1-3.32-6.32,7.36,7.36,0,0,1,.6-3c.06-.14.13-.28.19-.41a.87.87,0,0,0,0-.87A7.71,7.71,0,0,1,17.42,12.7a1.15,1.15,0,0,0,.74-.43,7.73,7.73,0,0,1,12.83,0,1,1,0,0,0,.82.46,7.69,7.69,0,0,1,6.36,11.07,1,1,0,0,0,0,.94A7.68,7.68,0,0,1,32,35.75Z" transform="translate(-0.95 -0.58)"/><path class="cls-4" d="M38.17,23.79a7.69,7.69,0,0,0-6.36-11.07,1,1,0,0,1-.82-.46,7.73,7.73,0,0,0-12.83,0,1.15,1.15,0,0,1-.74.43A7.71,7.71,0,0,0,11,23.82a.87.87,0,0,1,0,.87c-.06.13-.13.27-.19.41a7.36,7.36,0,0,0-.6,3,7.67,7.67,0,0,0,3.32,6.32l.16.1.37.22a3.75,3.75,0,0,0,.44.24,7.92,7.92,0,0,0,2.8.77,1.14,1.14,0,0,1,.95.56,7.69,7.69,0,0,0,12.63,0,1.26,1.26,0,0,1,1.05-.6,7.68,7.68,0,0,0,6.23-11A1,1,0,0,1,38.17,23.79ZM17.37,27.1a8.52,8.52,0,0,0-4.91-2.86,8.54,8.54,0,0,0,4.89-2.81A8.49,8.49,0,0,0,17.37,27.1Zm-.11-13.34a22.7,22.7,0,0,0-.35,2.81,21.23,21.23,0,0,0,.37,2.81,8.23,8.23,0,0,0-4.76-2.82A8.32,8.32,0,0,0,17.26,13.76Zm-.42,6.64a8.46,8.46,0,0,0-5,2.82,8.72,8.72,0,0,0,0-5.64A8.52,8.52,0,0,0,16.84,20.4Zm-5,10.5a8.63,8.63,0,0,0,0-5.61,8.54,8.54,0,0,0,4.94,2.79A8.63,8.63,0,0,0,11.88,30.9Zm5.47,3.84a8.66,8.66,0,0,0-4.82-2.8A8.63,8.63,0,0,0,17.39,29,8.42,8.42,0,0,0,17.35,34.74ZM24,9.86a8.36,8.36,0,0,0,0,5.71,8.49,8.49,0,0,0-4.93-2.86A8.5,8.5,0,0,0,24,9.86Zm0,13.38a8.52,8.52,0,0,0-4.93-2.84A8.53,8.53,0,0,0,24,17.58,8.46,8.46,0,0,0,24,23.24Zm-.63-6.69a8.61,8.61,0,0,0-4.86,2.83,8.65,8.65,0,0,0,0-5.64A8.53,8.53,0,0,0,23.39,16.55Zm0,7.68a8.64,8.64,0,0,0-4.86,2.83,8.68,8.68,0,0,0,0-5.65A8.47,8.47,0,0,0,23.4,24.23ZM18.53,34.76a8.62,8.62,0,0,0,0-5.63,8.68,8.68,0,0,0,4.8,2.79A8.76,8.76,0,0,0,18.53,34.76Zm.56,1A8.56,8.56,0,0,0,24,32.91a8.3,8.3,0,0,0,0,5.71A8.41,8.41,0,0,0,19.09,35.78ZM24,30.91a8.53,8.53,0,0,0-4.91-2.82A8.51,8.51,0,0,0,24,25.22,8.42,8.42,0,0,0,24,30.91Zm6.65-17.19a8.58,8.58,0,0,0,0,5.66,8.6,8.6,0,0,0-4.85-2.82A8.6,8.6,0,0,0,30.66,13.72ZM25.21,10a8.63,8.63,0,0,0,4.9,2.75,8.54,8.54,0,0,0-4.92,2.85A8.6,8.6,0,0,0,25.21,10Zm0,7.64a8.49,8.49,0,0,0,4.92,2.8,8.48,8.48,0,0,0-4.94,2.87A8.49,8.49,0,0,0,25.19,17.59Zm4.91,10.5a8.36,8.36,0,0,0-4.9,2.82,8.48,8.48,0,0,0-.05-5.69A8.59,8.59,0,0,0,30.1,28.09ZM25.23,38.52a8.41,8.41,0,0,0-.14-5.68,8.75,8.75,0,0,0,5.13,3A8.34,8.34,0,0,0,25.23,38.52Zm.65-6.6a8.58,8.58,0,0,0,4.78-2.82,8.58,8.58,0,0,0,0,5.66A8.86,8.86,0,0,0,25.88,31.92Zm-.08-7.67a8.36,8.36,0,0,0,4.91-3,8.73,8.73,0,0,0,0,5.93A8.27,8.27,0,0,0,25.8,24.25Zm6.06-10.47a8.74,8.74,0,0,0,4.82,2.77,8.63,8.63,0,0,0-4.87,2.89A8.46,8.46,0,0,0,31.86,13.78Zm4.87,10.46A8.64,8.64,0,0,0,31.86,27a8.54,8.54,0,0,0,0-5.58A8.67,8.67,0,0,0,36.73,24.24ZM31.86,34.73a8.5,8.5,0,0,0,0-5.59,8.8,8.8,0,0,0,4.82,2.79A8.67,8.67,0,0,0,31.86,34.73Zm.53-6.64a8.59,8.59,0,0,0,4.92-2.81,8.69,8.69,0,0,0,0,5.61A8.55,8.55,0,0,0,32.39,28.09Zm4.92-4.88a8.48,8.48,0,0,0-4.92-2.81,8.51,8.51,0,0,0,4.93-2.83A8.72,8.72,0,0,0,37.31,23.21Z" transform="translate(-0.95 -0.58)"/><path class="cls-2" d="M11.88,25.29a8.63,8.63,0,0,1,0,5.61,8.63,8.63,0,0,1,4.94-2.82A8.54,8.54,0,0,1,11.88,25.29Z" transform="translate(-0.95 -0.58)"/><path class="cls-2" d="M11.88,23.22a8.46,8.46,0,0,1,5-2.82,8.52,8.52,0,0,1-5-2.82A8.72,8.72,0,0,1,11.88,23.22Z" transform="translate(-0.95 -0.58)"/><path class="cls-2" d="M18.53,19.38a8.61,8.61,0,0,1,4.86-2.83,8.53,8.53,0,0,1-4.86-2.81A8.65,8.65,0,0,1,18.53,19.38Z" transform="translate(-0.95 -0.58)"/><path class="cls-2" d="M30.67,19.38a8.58,8.58,0,0,1,0-5.66,8.6,8.6,0,0,1-4.84,2.84A8.6,8.6,0,0,1,30.67,19.38Z" transform="translate(-0.95 -0.58)"/><path class="cls-2" d="M30.66,29.1a8.58,8.58,0,0,1-4.78,2.82,8.86,8.86,0,0,1,4.79,2.84A8.58,8.58,0,0,1,30.66,29.1Z" transform="translate(-0.95 -0.58)"/><path class="cls-2" d="M24,32.91a8.56,8.56,0,0,1-4.94,2.87A8.41,8.41,0,0,1,24,38.62,8.3,8.3,0,0,1,24,32.91Z" transform="translate(-0.95 -0.58)"/><path class="cls-2" d="M18.54,27.06a8.64,8.64,0,0,1,4.86-2.83,8.47,8.47,0,0,1-4.88-2.82A8.68,8.68,0,0,1,18.54,27.06Z" transform="translate(-0.95 -0.58)"/><path class="cls-2" d="M12.53,31.94a8.66,8.66,0,0,1,4.82,2.8,8.42,8.42,0,0,1,0-5.71A8.63,8.63,0,0,1,12.53,31.94Z" transform="translate(-0.95 -0.58)"/><path class="cls-2" d="M24,15.57a8.36,8.36,0,0,1,0-5.71,8.5,8.5,0,0,1-4.94,2.85A8.49,8.49,0,0,1,24,15.57Z" transform="translate(-0.95 -0.58)"/><path class="cls-2" d="M12.46,24.24a8.52,8.52,0,0,1,4.91,2.86,8.49,8.49,0,0,1,0-5.67A8.54,8.54,0,0,1,12.46,24.24Z" transform="translate(-0.95 -0.58)"/><path class="cls-2" d="M18.54,29.13a8.62,8.62,0,0,1,0,5.63,8.76,8.76,0,0,1,4.81-2.84A8.68,8.68,0,0,1,18.54,29.13Z" transform="translate(-0.95 -0.58)"/><path class="cls-2" d="M19.09,20.4A8.52,8.52,0,0,1,24,23.24a8.46,8.46,0,0,1,0-5.66A8.53,8.53,0,0,1,19.09,20.4Z" transform="translate(-0.95 -0.58)"/><path class="cls-2" d="M19.1,28.09A8.53,8.53,0,0,1,24,30.91a8.42,8.42,0,0,1,0-5.69A8.51,8.51,0,0,1,19.1,28.09Z" transform="translate(-0.95 -0.58)"/><path class="cls-2" d="M30.71,21.28a8.36,8.36,0,0,1-4.91,3,8.27,8.27,0,0,1,4.92,3A8.73,8.73,0,0,1,30.71,21.28Z" transform="translate(-0.95 -0.58)"/><path class="cls-2" d="M25.23,38.52a8.34,8.34,0,0,1,5-2.71,8.75,8.75,0,0,1-5.13-3A8.41,8.41,0,0,1,25.23,38.52Z" transform="translate(-0.95 -0.58)"/><path class="cls-2" d="M17.28,19.38a21.23,21.23,0,0,1-.37-2.81,22.7,22.7,0,0,1,.35-2.81,8.32,8.32,0,0,1-4.74,2.8A8.23,8.23,0,0,1,17.28,19.38Z" transform="translate(-0.95 -0.58)"/><path class="cls-2" d="M30.11,12.7A8.63,8.63,0,0,1,25.21,10a8.6,8.6,0,0,1,0,5.6A8.54,8.54,0,0,1,30.11,12.7Z" transform="translate(-0.95 -0.58)"/><path class="cls-2" d="M30.11,20.39a8.49,8.49,0,0,1-4.92-2.8,8.49,8.49,0,0,1,0,5.67A8.48,8.48,0,0,1,30.11,20.39Z" transform="translate(-0.95 -0.58)"/><path class="cls-2" d="M25.2,30.91a8.36,8.36,0,0,1,4.9-2.82,8.59,8.59,0,0,1-5-2.87A8.48,8.48,0,0,1,25.2,30.91Z" transform="translate(-0.95 -0.58)"/></svg>